<?xml version="1.0" encoding="UTF-8"?>
<svg id="Layer_2" data-name="Layer 2" xmlns="http://www.w3.org/2000/svg" xmlns:xlink="http://www.w3.org/1999/xlink" viewBox="0 0 2400 1700">
  <defs>
    <style>
      .cls-1 {
        fill: url(#radial-gradient-34);
      }

      .cls-2 {
        fill: url(#radial-gradient-10);
      }

      .cls-3 {
        fill: url(#radial-gradient-45);
      }

      .cls-4 {
        fill: url(#radial-gradient-56);
      }

      .cls-5 {
        fill: url(#radial-gradient-35);
      }

      .cls-6 {
        fill: url(#radial-gradient-46);
      }

      .cls-7 {
        fill: url(#radial-gradient-9);
      }

      .cls-8 {
        fill: url(#radial-gradient-28);
      }

      .cls-9 {
        fill: url(#radial-gradient-61);
      }

      .cls-10 {
        fill: url(#radial-gradient-48);
      }

      .cls-11 {
        fill: url(#radial-gradient-14);
      }

      .cls-12 {
        fill: url(#radial-gradient-58);
      }

      .cls-13 {
        fill: url(#radial-gradient-16);
      }

      .cls-14 {
        fill: url(#radial-gradient-40);
      }

      .cls-15 {
        fill: url(#radial-gradient-18);
      }

      .cls-16 {
        fill: url(#radial-gradient-38);
      }

      .cls-17 {
        fill: url(#radial-gradient-57);
      }

      .cls-18 {
        fill: url(#radial-gradient-5);
      }

      .cls-19 {
        fill: url(#radial-gradient-54);
      }

      .cls-20 {
        fill: url(#radial-gradient-37);
      }

      .cls-21 {
        fill: url(#radial-gradient);
      }

      .cls-22 {
        fill: url(#radial-gradient-3);
      }

      .cls-23 {
        fill: url(#radial-gradient-32);
      }

      .cls-24 {
        fill: url(#radial-gradient-24);
      }

      .cls-25 {
        fill: url(#radial-gradient-59);
      }

      .cls-26 {
        fill: url(#radial-gradient-20);
      }

      .cls-27 {
        fill: url(#radial-gradient-44);
      }

      .cls-28 {
        fill: url(#radial-gradient-29);
      }

      .cls-29 {
        fill: url(#radial-gradient-41);
      }

      .cls-30 {
        fill: url(#radial-gradient-39);
      }

      .cls-31 {
        fill: url(#radial-gradient-62);
      }

      .cls-32 {
        fill: url(#radial-gradient-49);
      }

      .cls-33 {
        fill: url(#radial-gradient-11);
      }

      .cls-34 {
        fill: url(#radial-gradient-26);
      }

      .cls-35 {
        fill: url(#radial-gradient-8);
      }

      .cls-36 {
        fill: url(#radial-gradient-42);
      }

      .cls-37 {
        fill: url(#radial-gradient-2);
      }

      .cls-38 {
        fill: url(#radial-gradient-23);
      }

      .cls-39 {
        fill: url(#radial-gradient-27);
      }

      .cls-40 {
        fill: url(#radial-gradient-30);
      }

      .cls-41 {
        fill: url(#radial-gradient-21);
      }

      .cls-42 {
        fill: url(#radial-gradient-53);
      }

      .cls-43 {
        fill: url(#radial-gradient-4);
      }

      .cls-44 {
        fill: url(#radial-gradient-25);
      }

      .cls-45 {
        fill: url(#radial-gradient-22);
      }

      .cls-46 {
        fill: url(#radial-gradient-36);
      }

      .cls-47 {
        fill: url(#radial-gradient-47);
      }

      .cls-48 {
        fill: url(#radial-gradient-12);
      }

      .cls-49 {
        fill: url(#radial-gradient-19);
      }

      .cls-50 {
        fill: url(#radial-gradient-52);
      }

      .cls-51 {
        fill: url(#radial-gradient-31);
      }

      .cls-52 {
        fill: url(#radial-gradient-51);
      }

      .cls-53 {
        fill: url(#radial-gradient-15);
      }

      .cls-54 {
        fill: url(#radial-gradient-50);
      }

      .cls-55 {
        fill: url(#radial-gradient-60);
      }

      .cls-56 {
        fill: url(#radial-gradient-6);
      }

      .cls-57 {
        fill: url(#radial-gradient-55);
      }

      .cls-58 {
        fill: url(#radial-gradient-33);
      }

      .cls-59 {
        fill: url(#radial-gradient-7);
      }

      .cls-60 {
        fill: url(#radial-gradient-17);
      }

      .cls-61 {
        fill: url(#radial-gradient-43);
      }

      .cls-62 {
        fill: url(#radial-gradient-13);
      }
    </style>
    <radialGradient id="radial-gradient" cx="1160.45" cy="819.41" fx="1160.45" fy="819.41" r="108.94" gradientTransform="translate(-22902.252 -16308.926) scale(20.09 20.174)" gradientUnits="userSpaceOnUse">
      <stop offset="0" stop-color="#fff"/>
      <stop offset="1" stop-color="#46c247"/>
    </radialGradient>
    <radialGradient id="radial-gradient-2" cx="1160.45" cy="819.41" fx="1160.45" fy="819.41" r="108.94" xlink:href="#radial-gradient"/>
    <radialGradient id="radial-gradient-3" cx="1160.45" cy="819.41" fx="1160.45" fy="819.41" r="108.95" xlink:href="#radial-gradient"/>
    <radialGradient id="radial-gradient-4" cx="1160.45" cy="819.41" fx="1160.45" fy="819.41" r="108.94" xlink:href="#radial-gradient"/>
    <radialGradient id="radial-gradient-5" cx="1160.45" cy="819.41" fx="1160.45" fy="819.41" r="108.94" xlink:href="#radial-gradient"/>
    <radialGradient id="radial-gradient-6" cx="1160.45" cy="819.4" fx="1160.45" fy="819.4" r="108.95" xlink:href="#radial-gradient"/>
    <radialGradient id="radial-gradient-7" cx="1160.45" cy="819.41" fx="1160.45" fy="819.41" r="108.94" xlink:href="#radial-gradient"/>
    <radialGradient id="radial-gradient-8" cx="1160.45" cy="819.41" fx="1160.45" fy="819.41" r="108.95" xlink:href="#radial-gradient"/>
    <radialGradient id="radial-gradient-9" cx="1160.45" cy="819.41" fx="1160.45" fy="819.41" r="108.94" xlink:href="#radial-gradient"/>
    <radialGradient id="radial-gradient-10" cx="1160.45" cy="819.41" fx="1160.45" fy="819.41" r="108.95" xlink:href="#radial-gradient"/>
    <radialGradient id="radial-gradient-11" cx="1160.45" cy="819.41" fx="1160.45" fy="819.41" r="108.94" xlink:href="#radial-gradient"/>
    <radialGradient id="radial-gradient-12" cx="1160.45" cy="819.41" fx="1160.45" fy="819.41" r="108.95" xlink:href="#radial-gradient"/>
    <radialGradient id="radial-gradient-13" cx="1160.45" cy="819.41" fx="1160.45" fy="819.41" r="108.94" xlink:href="#radial-gradient"/>
    <radialGradient id="radial-gradient-14" cx="1160.45" cy="819.41" fx="1160.45" fy="819.41" r="108.95" xlink:href="#radial-gradient"/>
    <radialGradient id="radial-gradient-15" cx="1160.45" cy="819.41" fx="1160.45" fy="819.41" r="108.94" xlink:href="#radial-gradient"/>
    <radialGradient id="radial-gradient-16" cx="1160.45" cy="819.41" fx="1160.45" fy="819.41" r="108.95" xlink:href="#radial-gradient"/>
    <radialGradient id="radial-gradient-17" cx="1160.45" cy="819.41" fx="1160.45" fy="819.41" r="108.94" xlink:href="#radial-gradient"/>
    <radialGradient id="radial-gradient-18" cx="1160.45" cy="819.41" fx="1160.45" fy="819.41" r="108.94" xlink:href="#radial-gradient"/>
    <radialGradient id="radial-gradient-19" cx="1160.45" cy="819.41" fx="1160.45" fy="819.41" r="108.94" xlink:href="#radial-gradient"/>
    <radialGradient id="radial-gradient-20" cx="1160.45" cy="819.41" fx="1160.45" fy="819.41" r="108.94" xlink:href="#radial-gradient"/>
    <radialGradient id="radial-gradient-21" cx="1160.45" cy="819.41" fx="1160.45" fy="819.41" r="108.94" xlink:href="#radial-gradient"/>
    <radialGradient id="radial-gradient-22" cx="1160.45" cy="819.39" fx="1160.45" fy="819.39" r="108.95" xlink:href="#radial-gradient"/>
    <radialGradient id="radial-gradient-23" cx="1160.45" cy="819.41" fx="1160.45" fy="819.41" r="108.94" xlink:href="#radial-gradient"/>
    <radialGradient id="radial-gradient-24" cx="1160.45" cy="819.41" fx="1160.45" fy="819.41" r="108.94" xlink:href="#radial-gradient"/>
    <radialGradient id="radial-gradient-25" cx="1160.45" cy="819.41" fx="1160.45" fy="819.41" r="108.94" xlink:href="#radial-gradient"/>
    <radialGradient id="radial-gradient-26" cx="1160.45" cy="819.41" fx="1160.45" fy="819.41" r="108.94" xlink:href="#radial-gradient"/>
    <radialGradient id="radial-gradient-27" cx="1160.45" cy="819.41" fx="1160.45" fy="819.41" r="108.94" xlink:href="#radial-gradient"/>
    <radialGradient id="radial-gradient-28" cx="1160.45" cy="819.41" fx="1160.45" fy="819.41" r="108.94" xlink:href="#radial-gradient"/>
    <radialGradient id="radial-gradient-29" cx="1160.45" cy="819.41" fx="1160.45" fy="819.41" r="108.94" xlink:href="#radial-gradient"/>
    <radialGradient id="radial-gradient-30" cx="1160.45" cy="819.41" fx="1160.45" fy="819.41" r="108.94" xlink:href="#radial-gradient"/>
    <radialGradient id="radial-gradient-31" cx="1160.45" cy="819.41" fx="1160.45" fy="819.41" r="108.94" xlink:href="#radial-gradient"/>
    <radialGradient id="radial-gradient-32" cx="1160.45" cy="819.41" fx="1160.45" fy="819.41" r="108.94" xlink:href="#radial-gradient"/>
    <radialGradient id="radial-gradient-33" cx="1160.45" cy="819.41" fx="1160.45" fy="819.41" r="108.94" xlink:href="#radial-gradient"/>
    <radialGradient id="radial-gradient-34" cx="1160.45" cy="819.41" fx="1160.45" fy="819.41" r="108.94" xlink:href="#radial-gradient"/>
    <radialGradient id="radial-gradient-35" cx="1160.45" cy="819.41" fx="1160.45" fy="819.41" r="108.94" xlink:href="#radial-gradient"/>
    <radialGradient id="radial-gradient-36" cx="1160.45" cy="819.41" fx="1160.45" fy="819.41" r="108.94" xlink:href="#radial-gradient"/>
    <radialGradient id="radial-gradient-37" cx="1160.45" cy="819.41" fx="1160.45" fy="819.41" r="108.94" xlink:href="#radial-gradient"/>
    <radialGradient id="radial-gradient-38" cx="1160.45" cy="819.41" fx="1160.45" fy="819.41" r="108.94" xlink:href="#radial-gradient"/>
    <radialGradient id="radial-gradient-39" cx="1160.45" cy="819.41" fx="1160.45" fy="819.41" r="108.94" xlink:href="#radial-gradient"/>
    <radialGradient id="radial-gradient-40" cx="1160.45" cy="819.41" fx="1160.45" fy="819.41" r="108.94" xlink:href="#radial-gradient"/>
    <radialGradient id="radial-gradient-41" cx="1160.45" cy="819.41" fx="1160.45" fy="819.41" r="108.94" xlink:href="#radial-gradient"/>
    <radialGradient id="radial-gradient-42" cx="1160.45" cy="819.41" fx="1160.45" fy="819.41" r="108.94" xlink:href="#radial-gradient"/>
    <radialGradient id="radial-gradient-43" cx="1160.45" cy="819.41" fx="1160.45" fy="819.41" r="108.94" xlink:href="#radial-gradient"/>
    <radialGradient id="radial-gradient-44" cx="1160.45" cy="819.41" fx="1160.45" fy="819.41" r="108.94" xlink:href="#radial-gradient"/>
    <radialGradient id="radial-gradient-45" cx="1160.45" cy="819.41" fx="1160.45" fy="819.41" r="108.94" xlink:href="#radial-gradient"/>
    <radialGradient id="radial-gradient-46" cx="1160.45" cy="819.41" fx="1160.45" fy="819.41" r="108.94" xlink:href="#radial-gradient"/>
    <radialGradient id="radial-gradient-47" cx="1160.45" cy="819.41" fx="1160.45" fy="819.41" r="108.94" xlink:href="#radial-gradient"/>
    <radialGradient id="radial-gradient-48" cx="1160.45" cy="819.41" fx="1160.45" fy="819.41" r="108.94" xlink:href="#radial-gradient"/>
    <radialGradient id="radial-gradient-49" cx="1160.45" cy="819.41" fx="1160.45" fy="819.41" r="108.94" xlink:href="#radial-gradient"/>
    <radialGradient id="radial-gradient-50" cx="1160.45" cy="819.41" fx="1160.45" fy="819.41" r="108.94" xlink:href="#radial-gradient"/>
    <radialGradient id="radial-gradient-51" cx="1160.45" cy="819.41" fx="1160.45" fy="819.41" r="108.94" xlink:href="#radial-gradient"/>
    <radialGradient id="radial-gradient-52" cx="1160.45" cy="819.41" fx="1160.45" fy="819.41" r="108.94" xlink:href="#radial-gradient"/>
    <radialGradient id="radial-gradient-53" cx="1160.45" cy="819.41" fx="1160.45" fy="819.41" r="108.94" xlink:href="#radial-gradient"/>
    <radialGradient id="radial-gradient-54" cx="1160.45" cy="819.41" fx="1160.45" fy="819.41" r="108.94" xlink:href="#radial-gradient"/>
    <radialGradient id="radial-gradient-55" cx="1160.45" cy="819.41" fx="1160.45" fy="819.41" r="108.94" xlink:href="#radial-gradient"/>
    <radialGradient id="radial-gradient-56" cx="1160.45" cy="819.41" fx="1160.45" fy="819.41" r="108.94" xlink:href="#radial-gradient"/>
    <radialGradient id="radial-gradient-57" cx="1160.45" cy="819.41" fx="1160.45" fy="819.41" r="108.94" xlink:href="#radial-gradient"/>
    <radialGradient id="radial-gradient-58" cx="1160.45" cy="819.41" fx="1160.45" fy="819.41" r="108.94" xlink:href="#radial-gradient"/>
    <radialGradient id="radial-gradient-59" cx="1160.45" cy="819.41" fx="1160.45" fy="819.41" r="108.94" xlink:href="#radial-gradient"/>
    <radialGradient id="radial-gradient-60" cx="1160.45" cy="819.41" fx="1160.45" fy="819.41" r="108.94" xlink:href="#radial-gradient"/>
    <radialGradient id="radial-gradient-61" cx="1160.45" cy="819.41" fx="1160.45" fy="819.41" r="108.94" xlink:href="#radial-gradient"/>
    <radialGradient id="radial-gradient-62" cx="1160.45" cy="819.41" fx="1160.45" fy="819.41" r="108.94" xlink:href="#radial-gradient"/>
  </defs>
  <g id="OBJECTS">
    <g>
      <path class="cls-21" d="M1570.2,1700c43.92-57.23,85.66-116.89,126.65-175.49,12.53-17.92,25.49-36.44,38.2-54.43,101.23-143.38,197.93-248.9,295.61-322.57,120.41-90.81,244.57-133.45,369.35-126.98v-.41c-29.19-1.52-58.47-.45-87.28,3.3-33.35,4.34-67,12.33-100.02,23.74-60.99,21.08-122.38,54.75-182.48,100.07-97.72,73.7-194.45,179.25-295.71,322.67-12.7,17.99-25.66,36.52-38.19,54.43-41.04,58.67-82.82,118.39-126.79,175.67h.67Z"/>
      <path class="cls-37" d="M22.96,1700c-2.23-.97-4.46-1.96-6.69-2.91-5.48-2.35-10.88-4.63-16.27-6.88v.58c7.22,3.02,14.43,6.1,21.62,9.22h1.33Z"/>
      <path class="cls-22" d="M155.2,1700c-31.95-14.81-64.07-29-96.27-42.16-20.2-8.26-39.8-15.87-58.93-22.88v.65c51.83,18.99,103.1,40.91,153.87,64.39h1.33Z"/>
      <path class="cls-43" d="M1566.68,1700c66.54-77.68,129.96-162.67,191.35-244.96l.2-.27c50.81-68.52,97.9-126.79,143.95-178.17,146.27-162.81,287.62-251.87,432.11-272.25,21.21-2.99,43.22-4.43,65.7-4.37v-.48c-22.52-.06-44.57,1.38-65.82,4.38-40.39,5.7-81.11,16.93-121.04,33.4-37.28,15.37-75.03,35.77-112.17,60.64-65.93,44.13-131.14,102.5-199.36,178.44-46.06,51.38-93.16,109.67-143.98,178.2l-.2.27c-61.44,82.37-124.93,167.44-191.53,245.18h.79Z"/>
      <path class="cls-18" d="M1559.06,1700c5.59-5.8,11.22-11.71,16.91-17.77,62.19-66.23,129.39-145.64,205.46-242.78,38.64-49.34,90.15-114.02,145.91-176.7,147.57-165.19,281.23-253.18,420.61-276.92,16.77-2.86,34.03-4.67,52.05-5.54v-.54c-18.08.86-35.39,2.68-52.22,5.55-39.16,6.67-78.66,18.78-117.43,35.98-36.05,16-72.66,36.96-108.82,62.29-63.02,44.14-126.76,102.66-194.86,178.89-55.77,62.7-107.28,127.38-145.93,176.74-76.05,97.12-143.25,176.52-205.42,242.74-5.64,6-11.36,12.03-17.15,18.06h.89Z"/>
      <path class="cls-56" d="M289.79,1700c-96.44-46.02-192.54-87.85-289.79-118.26v.6c96.77,30.29,192.41,71.88,288.4,117.66h1.39Z"/>
      <path class="cls-59" d="M1546.11,1700c14.76-13.42,29.84-27.64,45.38-42.82,70.92-69.31,144.62-149.89,213.13-233.03,44.95-54.56,95.91-116.4,147.86-175.25,100.32-112.94,237.48-247,409.12-281.59,12.24-2.46,25.01-4.34,38.4-5.71v-.61c-13.47,1.37-26.32,3.26-38.63,5.74-73.75,14.86-145.48,48.4-219.28,102.53-59.96,43.97-122.22,102.63-190.35,179.33-51.96,58.86-102.92,120.71-147.88,175.27-68.49,83.13-142.18,163.69-213.08,232.99-14.68,14.34-29.86,28.81-45.6,43.17h.92Z"/>
      <path class="cls-35" d="M426.32,1700h1.54c-9.41-4.54-18.48-8.89-27.36-13.12-86.7-41.37-189.69-88.56-296.19-124.86-35.84-12.22-70.53-22.63-104.3-31.36v.5c126.39,32.75,255.87,87.44,400,156.21,8.55,4.08,17.28,8.26,26.32,12.62Z"/>
      <path class="cls-7" d="M1526.04,1700c25.85-20.1,52.65-42.57,80.97-67.87,79.16-70.74,155.51-147.95,220.8-223.3,19.93-23,40.53-47.04,60.46-70.29,29.1-33.95,59.19-69.07,89.36-103.51,106.28-120.34,236.63-248.46,397.63-286.25,7.98-1.87,16.19-3.49,24.75-4.88v-.68c-8.66,1.4-16.96,3.03-25.03,4.93-71.09,16.69-140.55,51.62-212.34,106.79-57.48,44.17-116.52,101.29-185.82,179.76-30.17,34.44-60.26,69.56-89.37,103.51-19.93,23.25-40.53,47.3-60.45,70.29-65.27,75.32-141.6,152.51-220.74,223.23-25.54,22.82-52.55,45.94-81.27,68.27h1.06Z"/>
      <path class="cls-2" d="M510.37,1672.9c18.43,8.98,37.13,18.05,56.01,27.1h1.76c-18.89-9.04-37.94-18.26-57.2-27.65-30.9-14.93-59.53-28.46-87.52-41.37-127.25-58.66-271.84-118.69-423.41-149.35v.7c151.35,30.65,295.76,90.61,422.87,149.21,27.99,12.9,56.61,26.43,87.5,41.36Z"/>
      <path class="cls-33" d="M1495.32,1700c39.85-25.27,81.51-55.74,127.19-92.91,87.03-70.81,163.9-142.66,228.48-213.56,38.73-42.52,78.67-88.4,117.29-132.77,11.46-13.17,22.96-26.38,34.49-39.58,110.82-126.85,234.3-249.89,386.15-290.92,3.63-.98,7.33-1.9,11.09-2.78v-.77c-3.89.9-7.7,1.85-11.45,2.86-68.52,18.51-135.76,54.82-205.54,110.99-55.12,44.36-110.99,99.95-181.13,180.24-11.53,13.19-23.02,26.4-34.49,39.58-38.62,44.37-78.55,90.25-117.28,132.76-64.55,70.87-141.39,142.69-228.39,213.47-39.05,31.78-81.48,64.1-127.91,93.38h1.51Z"/>
      <path class="cls-48" d="M533.67,1616.28l15.62,7.5c53.85,25.85,108.29,51.98,162.96,76.22h1.98c-55.13-24.41-110.03-50.76-164.33-76.83l-15.62-7.5c-27.55-13.22-57.14-26.87-87.96-40.59-110.03-48.97-207.03-84.61-296.52-108.96-51.81-14.1-101.52-24.58-149.8-31.58v.62c131.71,19.01,274.69,64.42,445.74,140.54,30.81,13.71,60.39,27.36,87.93,40.57Z"/>
      <path class="cls-62" d="M1445.47,1700c59.66-27.64,121.11-65.28,192.55-117.95,93.92-69.25,171.16-135.92,236.16-203.83,48.45-50.62,96.5-104.93,153.74-170.9,102.62-118.26,224.38-248.17,372.08-294.77v-.87c-65.12,20.45-129.42,57.94-196.49,114.58-65.29,55.13-125.89,122.26-176.56,180.66-57.23,65.96-105.28,120.26-153.71,170.87-64.96,67.87-142.16,134.5-236.03,203.72-57.11,42.11-121.24,85.1-194.18,118.49h2.45Z"/>
      <path class="cls-11" d="M556.97,1559.66c16,7.58,32.32,15.38,48.11,22.93,87.24,41.67,176.15,84.15,264.87,117.42h2.45c-89.3-33.36-178.83-76.12-266.66-118.08-15.79-7.54-32.12-15.34-48.12-22.93-27.55-13.06-57.29-26.46-88.4-39.81-107.34-46.06-204.37-79.11-296.66-101.03-59.76-14.2-116.94-23.61-172.58-28.39v.76c141.66,12.1,293.6,54.24,468.62,129.34,31.1,13.35,60.82,26.73,88.35,39.79Z"/>
      <path class="cls-53" d="M1339.37,1700c37.43-7.73,74.49-18.83,111.72-33.44,62.56-24.56,126.88-59.37,202.43-109.55,98.67-65.55,178.43-129.04,243.84-194.09,46.24-45.99,95.72-99.83,155.7-169.45,108.22-125.58,216.34-242.44,346.94-294.17v-.98c-131.13,51.72-239.52,168.85-347.99,294.72-59.97,69.6-109.43,123.42-155.66,169.39-65.36,65.01-145.06,128.45-243.67,193.96-91.86,61.03-193.25,118.92-317.49,143.61h4.19Z"/>
      <path class="cls-13" d="M580.27,1503.03c25.86,12.12,52.25,24.74,77.77,36.95,135.42,64.76,275.18,131.59,410.83,160.02h4.42c-136.74-27.91-277.85-95.36-414.54-160.73-25.52-12.21-51.92-24.83-77.78-36.95-27.65-12.96-57.54-26.09-88.84-39.03-178.45-73.78-340.46-112.03-492.14-115.99v.86c151.46,3.97,313.25,42.18,491.5,115.87,31.28,12.93,61.14,26.05,88.78,39Z"/>
      <path class="cls-60" d="M2400,886.75c-50.76,24.51-101.91,61.01-155.5,110.96-55.58,51.8-106.55,110.32-167.42,181.45-56.75,66.31-108.3,121.24-157.59,167.92-66.43,62.91-148.64,123.16-251.31,184.2-160.78,95.57-284.24,134.17-426.14,133.21-50.16-.34-91.77-4.21-130.93-12.19-132-26.88-269.15-92.91-401.77-156.76-34.43-16.58-70.04-33.72-105-49.91-27.79-12.87-57.83-25.74-89.27-38.25-102.04-40.6-201.93-69.27-296.88-85.23-74.2-12.47-147.3-17.49-218.18-15.04v.84c161.58-5.87,330.63,27.14,514.37,100.23,31.42,12.5,61.43,25.36,89.21,38.22,34.94,16.18,70.55,33.32,104.97,49.9,132.71,63.89,269.94,129.96,402.15,156.88,39.28,8,81,11.89,131.29,12.23,76.37.51,149.28-11.26,222.91-35.99,63.06-21.18,127.92-52.15,204.12-97.45,102.76-61.08,185.03-121.39,251.53-184.36,49.33-46.71,100.9-101.67,157.67-168,97.85-114.34,198.81-232.24,321.79-291.76v-1.1Z"/>
      <path class="cls-15" d="M2400,877.16c-104.55,60.4-192.39,163.85-284.73,272.65l-13.13,15.46c-54.5,64.13-108.17,120.13-159.53,166.45-68.02,61.35-152.72,118.41-258.95,174.44-158.79,83.76-286.41,116.83-426.74,110.6-50.27-2.23-91.1-7.34-128.48-16.06-121.71-28.4-248.29-90.05-370.7-149.67-42.6-20.75-86.66-42.21-130.07-62.07-27.96-12.79-58.15-25.4-89.72-37.47-186.35-71.26-367.06-98.82-537.96-82.21v.99c170.64-16.62,351.11,10.9,537.25,82.08,31.54,12.06,61.7,24.66,89.63,37.43,43.4,19.85,87.44,41.3,130.04,62.05,122.49,59.66,249.15,121.35,371.05,149.79,37.5,8.75,78.44,13.87,128.84,16.11,76.04,3.38,148.65-4.94,221.97-25.43,63.71-17.81,129.08-44.93,205.74-85.37,106.33-56.08,191.12-113.21,259.22-174.63,51.4-46.35,105.11-102.39,159.64-166.55l13.13-15.46c92.02-108.41,179.55-211.52,283.51-271.88v-1.26Z"/>
      <path class="cls-49" d="M2400,869.96c-86.89,59.41-161.96,149.08-240.62,243.09-10.64,12.72-21.35,25.52-32.17,38.34-53.47,63.36-107.8,118.87-161.47,164.97-70.03,60.15-157.22,114.02-266.58,164.68-158.47,73.41-286.28,99.72-427.35,87.98-51.06-4.25-89.93-10.4-126.03-19.93-112.1-29.6-228.71-87.33-341.49-143.15-50.12-24.81-101.95-50.47-153.28-73.66-28.15-12.72-58.49-25.06-90.16-36.69-191.38-70.25-379.94-90.94-560.86-61.68v1.07c180.66-29.28,368.97-8.62,560.13,61.54,31.64,11.61,61.93,23.94,90.05,36.65,51.3,23.18,103.12,48.83,153.23,73.64,112.85,55.86,229.54,113.63,341.82,143.27,36.22,9.56,75.19,15.72,126.38,19.98,75.81,6.31,148.13,1.46,221.1-14.83,64.52-14.4,130.38-37.7,207.28-73.33,109.48-50.72,196.8-104.66,266.92-164.9,53.72-46.15,108.09-101.7,161.6-165.11,10.82-12.82,21.53-25.62,32.17-38.34,78.29-93.57,153.03-182.84,239.32-242.15v-1.45Z"/>
      <path class="cls-26" d="M2400,865.42c-70.51,56.41-133.21,132.84-198.64,212.66-15.94,19.44-32.43,39.55-49.08,59.43-52.69,62.88-107.66,117.89-163.4,163.5-72.36,59.2-162.04,109.88-274.2,154.91-157.72,63.34-285.71,82.89-427.96,65.37-34.42-4.24-79.58-10.77-123.58-23.8-103.06-30.5-205.48-82.24-313.91-137.02-57.06-28.82-116.06-58.63-174.86-84.87-28.35-12.65-58.83-24.73-90.6-35.91-195.75-68.88-391.58-82.01-582.03-39.03-.58.13-1.15.27-1.73.4v1.17c.73-.17,1.46-.35,2.19-.51,190.04-42.89,385.46-29.78,580.83,38.96,31.72,11.16,62.16,23.22,90.47,35.86,58.77,26.22,117.75,56.02,174.79,84.83,108.51,54.81,211,106.59,314.22,137.13,44.15,13.07,89.41,19.62,123.92,23.87,142.65,17.57,270.97-2.02,429.05-65.51,112.32-45.1,202.15-95.86,274.63-155.16,55.8-45.66,110.83-100.72,163.57-163.66,16.66-19.88,33.15-39.99,49.09-59.44,65.03-79.31,127.34-155.29,197.26-211.53v-1.67Z"/>
      <path class="cls-41" d="M2400,863.96c-55.33,51.27-105.99,114.68-158.63,180.58-20.67,25.88-42.04,52.65-64.03,79.08-52.07,62.58-107.69,117.09-165.33,162.02-74.95,58.41-167.13,105.89-281.81,145.16-156.57,53.6-284.74,66.39-428.57,42.76-36.57-6.01-79.55-13.99-121.13-27.67-94.52-31.1-188.41-79.69-287.81-131.13-63.46-32.84-129.08-66.8-194.97-95.83-28.56-12.59-59.2-24.41-91.04-35.13-192.51-64.84-387.72-71.68-580.2-20.34-8.84,2.36-17.67,4.89-26.47,7.56v1.26c8.96-2.72,17.98-5.3,27.04-7.72,192.02-51.22,386.78-44.39,578.86,20.3,31.79,10.71,62.37,22.51,90.88,35.07,65.84,29.01,131.43,62.96,194.87,95.79,99.47,51.48,193.42,100.1,288.09,131.24,41.72,13.72,84.81,21.73,121.46,27.75,144.25,23.7,272.76,10.88,429.71-42.85,114.89-39.33,207.25-86.9,282.34-145.44,57.72-44.99,113.42-99.57,165.54-162.22,22-26.44,43.38-53.21,64.05-79.1,52.18-65.33,102.42-128.22,157.15-179.2v-1.94Z"/>
      <path class="cls-45" d="M2400,865.99c-41.27,43.86-80.22,94.2-120.44,146.2-24.72,31.96-50.28,65-77.15,97.54-51.53,62.39-107.81,116.41-167.26,160.54-76.69,56.93-174.06,102.48-289.42,135.39-155.07,44.25-283.43,50.27-429.19,20.15-38.37-7.93-79.3-17.23-118.68-31.54-86.42-31.4-172.19-77.03-263-125.34-69.39-36.92-141.14-75.09-213.8-106.69-28.79-12.52-59.57-24.08-91.49-34.36-189.76-61.07-384.34-61.63-578.36-1.64-17.23,5.33-34.31,11.22-51.2,17.64v1.4c17.12-6.52,34.43-12.51,51.9-17.91,193.52-59.84,387.62-59.29,576.89,1.63,31.86,10.25,62.57,21.79,91.3,34.28,72.58,31.57,144.3,69.73,213.66,106.63,90.87,48.35,176.7,94.01,263.25,125.46,39.51,14.35,80.54,23.68,118.99,31.63,75.59,15.62,147.16,21.29,218.81,17.33,66.76-3.68,135.97-15.96,211.57-37.53,115.6-32.98,213.19-78.64,290.06-135.7,59.56-44.21,115.92-98.3,167.52-160.78,26.89-32.55,52.46-65.61,77.18-97.57,39.72-51.36,78.19-101.09,118.88-144.53v-2.23Z"/>
      <path class="cls-38" d="M2400,871.97c-28.32,34.12-55.81,71.02-84,108.87-28.11,37.74-57.17,76.77-88.53,115.01-51.06,62.27-107.99,115.79-169.19,159.06-79.65,56.31-179.58,98.58-297.02,125.63-151.26,34.85-283.82,34.09-429.82-2.45-35.67-8.93-77.02-19.77-116.24-35.41-78.68-31.4-156.71-74.21-239.32-119.55-74.9-41.1-152.34-83.59-231.49-117.57-29.03-12.46-59.97-23.76-91.94-33.58-187.46-57.56-381.43-51.82-576.53,17.06-25.45,8.98-50.82,19.36-75.93,30.92v1.52c25.22-11.65,50.85-22.13,76.75-31.28,194.57-68.69,388-74.42,574.93-17.02,31.9,9.79,62.75,21.06,91.71,33.49,79.07,33.94,156.47,76.42,231.32,117.49,82.66,45.36,160.74,88.21,239.54,119.65,39.35,15.7,80.78,26.56,116.53,35.51,146.41,36.65,279.35,37.41,431.04,2.46,117.73-27.13,217.92-69.51,297.79-125.97,61.32-43.36,118.35-96.97,169.49-159.34,31.38-38.27,60.45-77.3,88.57-115.06,27.64-37.12,54.61-73.33,82.34-106.87v-2.58Z"/>
      <path class="cls-24" d="M2400,882.26c-16.39,22.03-32.66,44.85-49.21,68.06-30.86,43.29-62.78,88.06-98.25,131.64-50.64,62.22-108.21,115.23-171.12,157.58-82.76,55.71-185.25,94.7-304.62,115.88-149.33,26.49-282.08,18.77-430.44-25.05-37.18-10.98-76.58-23.06-113.79-39.29-71.29-31.09-141.91-71.18-216.67-113.63-80-45.42-162.73-92.39-248.15-128.58-29.25-12.39-60.33-23.43-92.39-32.8-185.59-54.26-378.94-42.22-574.69,35.76-33.75,13.45-67.46,29.34-100.66,47.35v1.52c33.14-17.94,67.08-33.93,101.61-47.68,195.18-77.76,387.95-89.77,572.95-35.68,31.97,9.35,62.96,20.35,92.13,32.71,85.31,36.14,167.99,83.08,247.94,128.47,74.81,42.47,145.48,82.59,216.87,113.72,37.33,16.28,76.82,28.38,114.06,39.39,148.78,43.94,281.92,51.69,431.69,25.11,119.71-21.24,222.5-60.34,305.52-116.23,63.05-42.44,120.74-95.57,171.47-157.9,35.5-43.61,67.43-88.4,98.31-131.71,15.96-22.38,31.66-44.4,47.45-65.7v-2.95Z"/>
      <path class="cls-44" d="M2400,896.98c-5.31,7.79-10.63,15.62-15.99,23.52-33.02,48.67-67.16,99-106.41,147.58-50.25,62.2-108.47,114.72-173.04,156.1-84.8,54.35-192.76,91.04-312.2,106.13-147.32,18.6-280.27,3.91-431.08-47.65-39.94-13.65-75.89-26.33-111.35-43.16-64.18-30.47-127.7-67.89-194.95-107.5-84.76-49.92-172.4-101.55-263.89-139.79-29.51-12.33-60.75-23.11-92.83-32.02-184.13-51.15-376.87-32.82-572.87,54.47-42.58,18.96-84.55,41.5-125.39,67.06v1.9c41.17-25.86,83.51-48.64,126.47-67.77,195.4-87.02,387.51-105.3,570.99-54.33,31.99,8.88,63.12,19.62,92.54,31.92,91.36,38.19,178.94,89.77,263.63,139.66,67.29,39.64,130.84,77.07,195.11,107.58,35.57,16.89,71.59,29.58,111.59,43.26,151.23,51.7,284.56,66.43,432.34,47.77,119.83-15.13,228.16-51.96,313.25-106.49,64.74-41.49,123.1-94.13,173.45-156.46,39.29-48.63,73.44-98.98,106.48-147.67,4.73-6.98,9.44-13.9,14.13-20.8v-3.31Z"/>
      <path class="cls-34" d="M2400,915.75c-29.79,46.18-61.06,93.22-97.33,138.45-49.89,62.22-108.76,114.24-174.96,154.62-111.33,67.9-235.35,89.89-319.79,96.38-145.34,11.17-278.49-10.5-431.71-70.25-33.92-13.23-72.37-28.22-108.91-47.04-57.34-29.53-114.03-64.27-174.05-101.05-89.18-54.65-181.39-111.16-278.81-151.32-29.75-12.27-61.14-22.78-93.28-31.24-96.26-25.35-196.5-30.45-297.92-15.16-90.03,13.57-181.91,43.29-273.11,88.34-50.74,25.06-101.12,55.61-150.11,90.65v2.12c49.37-35.42,100.17-66.29,151.33-91.55,195.24-96.44,386.69-121,569.02-72.99,32.03,8.43,63.31,18.9,92.96,31.13,97.25,40.1,189.39,96.56,278.5,151.17,60.05,36.8,116.77,71.56,174.19,101.13,36.65,18.87,75.16,33.89,109.13,47.14,153.64,59.91,287.17,81.63,432.98,70.43,84.74-6.51,209.23-28.58,321-96.75,66.39-40.49,125.42-92.65,175.43-155.02,35.53-44.31,66.24-90.31,95.46-135.55v-3.62Z"/>
      <path class="cls-39" d="M2400,937.51c-22.06,34.72-45.63,69.34-72.27,102.81-49.55,62.26-109.06,113.78-176.88,153.13-115.66,67.11-241.87,84.15-327.37,86.63-143.49,4.16-276.84-24.48-432.36-92.86-35.14-15.45-71.48-31.43-106.47-50.91-50.74-28.26-100.84-60.29-153.89-94.2-93.3-59.64-189.78-121.3-292.99-163.27-30-12.19-61.53-22.44-93.73-30.46-96.15-23.94-196.45-26.45-298.13-7.46-89.47,16.71-180.67,50.14-271.07,99.34-59.02,32.13-117.74,71.76-174.84,117.59v2.35c57.53-46.32,116.71-86.34,176.19-118.72,194.74-106,385.52-136.84,567.05-91.64,32.08,7.99,63.49,18.2,93.37,30.35,103.01,41.88,199.4,103.49,292.61,163.08,53.08,33.93,103.21,65.97,154.01,94.27,35.07,19.54,71.47,35.54,106.66,51.01,155.92,68.56,289.66,97.27,433.62,93.09,85.86-2.49,212.59-19.61,328.74-87,68.04-39.48,127.74-91.16,177.42-153.59,25.85-32.48,48.82-66.04,70.31-99.71v-3.83Z"/>
      <path class="cls-8" d="M2400,960.51c-14.64,22.34-30.22,44.42-47.2,65.92-49.22,62.33-109.38,113.35-178.8,151.65-120.1,66.26-248.44,78.38-334.95,76.89-141.87-2.45-275.41-38.06-433-115.46l-.9-.44c-34.11-16.75-69.37-34.07-103.13-54.35-44.36-26.66-88.13-55.91-134.46-86.87-97.13-64.91-197.56-132.03-306.45-175.69-30.25-12.13-61.94-22.12-94.18-29.68-96.1-22.56-196.47-22.48-298.35.24-89.04,19.85-179.55,56.98-269.02,110.36-66.64,39.76-133.6,89.72-199.56,148.59v2.6c66.45-59.48,133.92-109.91,201.05-149.96,193.9-115.68,384.02-152.79,565.08-110.28,32.1,7.54,63.66,17.48,93.78,29.56,108.65,43.56,208.98,110.61,306.01,175.46,46.36,30.98,90.14,60.24,134.55,86.93,33.84,20.33,69.15,37.67,103.3,54.44l.89.44c157.98,77.59,291.91,113.29,434.26,115.75,86.91,1.5,215.83-10.68,336.48-77.25,69.67-38.44,130.04-89.63,179.41-152.16,16.2-20.52,31.12-41.54,45.17-62.81v-3.87Z"/>
      <path class="cls-28" d="M2400,982.72c-7.1,10.06-14.44,20.02-22.14,29.84-48.9,62.41-109.7,112.93-180.71,150.16-97.23,50.99-218.88,74.83-342.54,67.15-140.56-8.73-274.3-51.31-433.64-138.06l-.71-.38c-33.37-18.17-67.89-36.95-100.87-58.29-38.19-24.7-75.83-51.06-115.67-78.97-100.68-70.52-204.78-143.44-319.26-188.68-30.53-12.06-62.37-21.78-94.64-28.91-96.09-21.2-196.55-18.54-298.6,7.93-88.7,23-178.51,63.84-266.93,121.39-73.6,47.9-147.99,108.73-224.29,183.51v2.88c76.88-75.56,151.81-136.94,225.92-185.17,132.53-86.26,337.81-178.64,563.12-128.92,32.11,7.08,63.8,16.77,94.18,28.77,114.2,45.13,218.19,117.97,318.76,188.41,39.86,27.92,77.51,54.29,115.74,79.02,33.06,21.38,67.61,40.19,101.03,58.38l.71.39c159.72,86.95,293.85,129.64,434.89,138.4,124.26,7.72,246.51-16.25,344.23-67.49,71.29-37.39,132.33-88.09,181.4-150.72,6.93-8.84,13.57-17.79,20.02-26.82v-3.8Z"/>
      <path class="cls-40" d="M2400,1002.33c-48.13,60.78-108.54,109.58-179.7,145.02-100.83,50.22-225.17,70.61-350.11,57.42-139.63-14.75-273.57-64.3-434.29-160.67-31.13-18.66-66.4-39.81-99.13-62.55-32.22-22.38-63.93-45.71-97.5-70.41-103.96-76.5-211.47-155.61-331.47-202.33-30.78-11.99-62.77-21.45-95.1-28.13-226.65-46.84-431.64,54.65-563.69,148.03-88.68,62.71-171.81,140.33-249.01,222v3.15c77.71-82.39,161.43-160.76,250.78-223.94,131.56-93.03,335.71-194.16,561.16-147.57,32.15,6.64,63.97,16.06,94.59,27.98,119.68,46.6,227.05,125.61,330.89,202.02,33.58,24.71,65.3,48.05,97.54,70.45,32.8,22.78,68.11,43.95,99.26,62.63,161.09,96.59,295.41,146.26,435.53,161.06,125.6,13.26,250.6-7.24,351.98-57.73,70.4-35.06,130.31-83.13,178.26-142.87v-3.56Z"/>
      <path class="cls-51" d="M2400,1017.93c-43.51,47.15-96,85.43-156.54,114.05-104.48,49.4-231.51,66.34-357.7,47.69-139.13-20.56-273.27-77.08-434.94-183.27-34.73-22.81-65.97-43.55-96.69-66.43-26.43-19.68-53.62-40.75-79.92-61.12-106.98-82.88-217.61-168.59-343.08-216.73-31.06-11.91-63.2-21.11-95.55-27.35-227.19-43.79-430.94,66.51-561.85,166.75C176.18,866.22,86.23,958.9,0,1055.62v3.41c86.83-97.54,177.4-191.08,275.64-266.31,130.41-99.86,333.29-209.75,559.19-166.21,32.16,6.2,64.12,15.35,95,27.2,125.1,47.99,235.58,133.59,342.42,216.36,26.31,20.38,53.5,41.45,79.95,61.15,30.77,22.92,62.05,43.68,96.8,66.51,162.03,106.42,296.55,163.08,436.16,183.71,126.89,18.75,254.64,1.71,359.72-47.97,59.84-28.29,111.83-65.96,155.11-112.26v-3.28Z"/>
      <path class="cls-23" d="M2400,1029.23c-38.27,35.45-82.88,64.73-133.38,87.38-108.18,48.51-237.9,61.99-365.28,37.96-139.08-26.24-273.42-89.73-435.6-205.88-28.83-20.65-62.26-44.81-94.24-70.31-20.6-16.42-41.76-33.71-62.22-50.42-110.01-89.86-223.77-182.79-354.81-232.52-31.59-11.89-63.89-20.83-96-26.57-96.31-17.24-197.06-6.81-299.46,30.98-88.27,32.58-175.93,84.56-260.54,154.5C190.95,843.21,93.78,954.17,0,1062.95v3.61c94.44-109.56,192.26-221.55,300.5-311.02,129.11-106.72,330.59-225.41,557.24-184.85,31.9,5.71,64,14.59,95.4,26.41,130.61,49.57,244.21,142.37,354.06,232.1,20.47,16.72,41.63,34.01,62.24,50.44,32.02,25.53,65.48,49.72,94.34,70.38,162.52,116.39,297.23,180.04,436.79,206.37,128.13,24.17,258.63,10.6,367.46-38.2,49.85-22.35,93.97-51.13,131.96-85.88v-3.07Z"/>
      <path class="cls-58" d="M2400,1036.51c-32.68,25.75-69.48,47.42-110.22,64.73-110.29,46.87-246.19,57.16-372.87,28.24-139.49-31.85-274.03-102.32-436.25-228.48-37.7-29.33-66.01-52.21-91.8-74.19-15.2-12.96-30.79-26.43-45.86-39.46-112.46-97.18-228.75-197.67-365.19-248.59-31.99-11.87-64.45-20.54-96.46-25.79-96.37-16.06-197.23-3.08-299.75,38.57-88.25,35.85-175.19,91.57-258.41,165.63-93.81,83.49-178.48,183.62-260.35,280.46-20.65,24.42-41.59,49.17-62.83,73.85v3.73c22.06-25.6,43.8-51.29,65.22-76.63,81.83-96.78,166.45-196.86,260.14-280.24,104.63-93.12,315.91-243.37,555.28-203.48,31.79,5.21,64.02,13.83,95.8,25.62,135.95,50.74,252.06,151.08,364.36,248.11,15.08,13.03,30.67,26.5,45.88,39.47,25.81,22,54.15,44.91,91.88,74.25,162.55,126.43,297.45,197.06,437.42,229.02,127.45,29.1,264.21,18.74,375.2-28.44,40.13-17.05,76.46-38.29,108.81-63.47v-2.91Z"/>
      <path class="cls-1" d="M2400,1040.17c-26.58,17.71-55.61,33-87.06,45.7-114.2,45.81-252.87,52.56-380.46,18.52-179.88-48-327.98-159.4-436.9-251.09-31.76-26.73-61.82-53-89.35-78.07-10.03-9.13-20.09-18.35-30.2-27.61-114.61-104.98-233.12-213.53-374.88-265.54-32.08-11.73-64.69-20.14-96.92-25.01-242.48-36.96-452.63,123.8-556.32,222.92-79.64,76.13-151.51,163.93-221.02,248.85-41.01,50.1-82.97,101.34-126.89,150.7v3.78c44.84-50.23,87.6-102.47,129.38-153.51,69.47-84.86,141.3-172.62,220.84-248.66,103.26-98.71,312.46-258.83,553.33-222.12,31.98,4.83,64.35,13.19,96.21,24.83,141.22,51.8,259.54,160.18,373.96,265,10.12,9.26,20.18,18.48,30.21,27.61,27.55,25.09,57.63,51.37,89.41,78.13,109.14,91.88,257.56,203.51,438.05,251.67,128.4,34.26,267.97,27.46,382.94-18.66,30.88-12.46,59.45-27.4,85.66-44.67v-2.75Z"/>
      <path class="cls-5" d="M2400,1041.03c-138.47,77.73-316.03,79.62-451.95,38.27-202.64-61.64-371.81-207.36-524.45-355.65l-15.19-14.78c-142.03-138.21-288.9-281.11-481.3-307.71-96.81-13.38-197.91,4.8-300.49,54.04-87.26,41.89-175.09,106.76-253.98,187.61-68.99,70.69-131.1,149.78-191.16,226.26-57.27,72.92-116.23,147.95-181.48,216.14v3.7c66.3-68.95,126.05-145.01,184.08-218.89,60.03-76.44,122.1-155.47,191.01-226.09,78.68-80.63,166.23-145.31,253.18-187.05,101.88-48.91,202.21-66.97,298.2-53.7,191.28,26.45,337.81,169.03,479.51,306.91l15.19,14.78c152.87,148.52,322.36,294.48,525.64,356.32,104.03,31.64,217.98,36,320.86,12.25,48.24-11.13,92.61-28,132.33-50.08v-2.35Z"/>
      <path class="cls-46" d="M2400,993.79c-140.63,83.34-326.79,85.86-467.08,43.79-98.91-29.62-197.78-80.17-302.26-154.53-84.87-60.17-163.81-129.71-223.11-183.58l-16.15-14.69c-65.82-59.94-133.89-121.92-207.35-172.97-93.19-65.29-181.75-102.35-270.75-113.29-113.07-13.98-231.67,13.88-352.49,82.8-69.34,39.36-136.83,90.68-200.6,152.51-69.45,67.2-132.37,141.93-193.21,214.2-53.2,63.18-107.82,128.01-167.01,188.03v3.61c60.19-60.77,115.61-126.54,169.56-190.62,60.81-72.23,123.69-146.91,193.05-214.03,63.61-61.68,130.92-112.86,200.05-152.1,120.1-68.51,237.88-96.22,350.06-82.35,88.39,10.86,176.44,47.74,269.21,112.73,73.33,50.97,141.33,112.89,207.1,172.78l16.15,14.69c59.34,53.91,138.36,123.52,223.33,183.76,104.75,74.55,203.92,125.25,303.18,154.97,103.12,30.92,215.91,36.02,317.59,14.33,55.68-11.87,106.34-31.24,150.72-57.34v-2.69Z"/>
      <path class="cls-20" d="M2400,947.38c-141.23,89.37-332.76,92.64-482.21,48.46-97.74-28.81-196.59-77.3-302.2-148.24-84.5-56.32-160.69-118.72-224.08-172.34l-12.36-10.47c-67.18-56.94-136.65-115.81-211.05-164.37-94.78-61.87-180.13-95.1-268.59-104.58-111.04-12.06-228.72,15.65-349.76,82.37-69.81,38.48-137.76,87.81-201.95,146.61-69.74,63.62-133.31,133.89-194.79,201.86-49.12,54.3-99.42,109.88-153.01,162.16v3.5c54.54-53,105.64-109.45,155.52-164.59,61.44-67.92,124.98-138.16,194.63-201.7,64.04-58.66,131.8-107.85,201.41-146.23,120.35-66.34,237.24-93.9,347.43-81.93,87.85,9.42,172.71,42.49,267.05,104.07,74.26,48.47,143.67,107.29,210.79,164.18l12.36,10.47c63.45,53.66,139.71,116.12,224.31,172.51,105.86,71.11,205,119.73,303.07,148.64,102.2,30.21,213.83,36.03,314.32,16.41,63.34-12.37,120.33-34.24,169.11-64.52v-2.25Z"/>
      <path class="cls-16" d="M2400,900.38c-142.69,94.93-343.22,98.62-497.34,53.74-96.58-28.01-192.59-73.11-302.14-141.95-87.04-54.69-166-114.82-225.06-161.1l-10.13-7.95c-67.99-53.38-138.29-108.58-213.19-154.05-94.65-57.46-179.31-87.93-266.42-95.88-109.22-10.2-225.98,17.37-347.02,81.93-70.06,37.37-138.46,84.71-203.3,140.7-69.82,59.92-133.85,125.65-195.78,189.21-45.11,46.3-91.19,93.59-139.61,138.66v3.4c49.32-45.76,96.19-93.85,142.05-140.93,61.89-63.53,125.89-129.21,195.63-189.06,64.69-55.87,132.92-103.09,202.78-140.35,120.38-64.21,236.39-91.63,344.8-81.51,86.52,7.89,170.69,38.21,264.89,95.4,74.76,45.39,145,100.54,212.92,153.87l10.13,7.95c59.11,46.31,138.14,106.49,225.29,161.25,109.8,69,206.07,114.22,302.97,142.31,101.28,29.49,211.75,36.05,311.06,18.46,71.2-12.61,134.62-36.93,187.48-71.51v-2.61Z"/>
      <path class="cls-30" d="M2400,853.52c-127.92,88.48-324.63,112.72-512.48,58.87-94.52-26.95-190.51-70.06-302.09-135.66-87.87-51.66-166.96-107.22-226.04-149.85l-7.05-5.1c-69.05-49.94-140.46-101.59-216.17-144.07-94.54-53.04-178.51-80.74-264.25-87.17-107.37-8.34-223.2,19.08-344.29,81.5-69.58,35.87-138.44,81.22-204.65,134.8-68.94,55.78-132.75,116.37-194.45,174.96-41.75,39.64-84.3,80.03-128.52,118.94v3.3c45.09-39.57,88.4-80.69,130.9-121.05,61.67-58.56,125.44-119.11,194.31-174.83,66.07-53.45,134.75-98.7,204.15-134.48,120.45-62.09,235.57-89.38,342.17-81.09,85.17,6.39,168.66,33.95,262.75,86.74,75.58,42.4,146.92,94,215.91,143.9l7.05,5.1c59.13,42.66,138.29,98.27,226.26,149.99,111.82,65.74,208.05,108.95,302.86,135.99,100.36,28.77,209.68,36.05,307.81,20.51,79.29-12.56,149.25-39.27,205.85-78.2v-3.09Z"/>
      <path class="cls-14" d="M2400,807.68c-127.94,93.72-329.74,118.81-527.61,62.99-93.36-26.17-186.51-66.07-302.04-129.38-69.22-37.93-139.24-80.68-227.03-138.61l-2.76-1.82c-70.5-46.65-143.39-94.9-220.37-134.51-94.16-48.45-177.44-73.38-262.08-78.47-105.78-6.35-220.7,20.92-341.55,81.06-69.62,34.65-138.93,78.01-206,128.9-68.19,51.73-131.72,107.4-193.15,161.23-39.61,34.71-78.16,68.48-117.41,100.93v3.18c40.05-33.04,79.33-67.46,119.72-102.84,61.4-53.81,124.89-109.45,193.01-161.12,66.93-50.77,136.08-94.04,205.53-128.6,120.24-59.84,234.48-86.99,339.53-80.67,84.08,5.05,166.89,29.86,260.6,78.08,76.84,39.54,149.67,87.74,220.1,134.35l2.76,1.83c87.86,57.98,157.94,100.77,227.24,138.74,115.75,63.43,209.12,103.42,302.74,129.66,99.44,28.06,207.6,36.06,304.57,22.53,87.62-12.22,164.23-41.21,224.2-84.5v-2.94Z"/>
      <path class="cls-29" d="M2400,762.16c-126.8,97.31-337.72,123.67-542.74,66.78-115.78-31.89-222.21-82.53-301.99-123.09-69.91-35.54-140.24-74.83-228.02-127.38-67.59-40.6-144.19-86.63-223.04-123.5-94.04-43.98-176.63-66.15-259.91-69.76-103.91-4.51-217.9,22.61-338.81,80.62-69.65,33.42-139.41,74.8-207.35,122.99-66.94,47.49-129.72,98.08-190.44,147.02-36.36,29.3-71.87,57.91-107.71,85.53v3.06c36.61-28.16,72.83-57.35,109.94-87.26,60.68-48.91,123.43-99.47,190.3-146.92,67.8-48.1,137.42-89.39,206.9-122.73,120.34-57.74,233.69-84.74,336.91-80.26,82.74,3.59,164.86,25.65,258.47,69.42,78.7,36.8,155.24,82.78,222.76,123.35,87.85,52.59,158.23,91.91,228.2,127.48,79.92,40.62,186.54,91.36,302.62,123.33,205.02,56.9,416,30.94,543.89-65.67v-3.03Z"/>
      <path class="cls-36" d="M2400,717.51c-2.7,2.1-5.47,4.22-8.36,6.41-125.99,95.16-341.69,120-549.51,63.29-109.98-29.75-210.11-73.72-301.94-116.8-70.68-33.16-141.31-68.98-229.01-116.14-77.46-41.84-147.71-79.04-222.94-110.66-93.97-39.49-175.87-58.89-257.73-61.05-103.41-2.74-213.33,23.49-336.07,80.19-69.66,32.18-139.88,71.57-208.69,117.09-65.05,43.02-126.46,88.36-185.85,132.22-33.72,24.9-66.74,49.27-99.89,72.91v2.92c33.87-24.11,67.58-48.99,102.03-74.42,59.37-43.83,120.75-89.15,185.74-132.14,68.69-45.43,138.76-84.74,208.28-116.85,122.19-56.44,231.53-82.56,334.28-79.84,81.35,2.15,162.8,21.46,256.33,60.77,75.1,31.56,145.28,68.73,222.67,110.53,87.76,47.19,158.44,83.03,229.17,116.22,91.97,43.15,192.27,87.18,302.5,117,99,27.01,202.11,36.19,298.19,26.54,101.83-10.23,189.87-41.48,254.63-90.38,2.12-1.6,4.17-3.17,6.19-4.73v-3.06Z"/>
      <path class="cls-61" d="M2400,674.88c-8.08,6.04-17.17,12.47-27.85,19.7-128.54,87.09-337.43,106.6-545.15,50.9-108.64-28.84-208.71-70.41-301.9-110.51-70.68-30.41-143.77-63.75-230.01-104.9-69.95-33.55-144.77-68.75-222.85-97.82-95.24-35.46-174.05-51.61-255.54-52.35-101.37-.92-210.4,25.17-333.32,79.75-69.66,30.93-140.33,68.34-210.04,111.18-62.25,38.26-121.44,78.12-178.69,116.67-31.95,21.51-63.3,42.61-94.65,63.14v2.8c32.04-20.95,64.05-42.49,96.69-64.47,57.22-38.53,116.39-78.38,178.59-116.6,69.59-42.77,140.13-80.11,209.66-110.98,122.41-54.36,230.89-80.34,331.66-79.42,81,.74,159.4,16.81,254.2,52.11,77.95,29.02,152.69,64.18,222.58,97.71,86.29,41.17,159.41,74.52,230.13,104.95,93.31,40.15,193.51,81.77,302.39,110.68,98.05,26.29,200.07,36.15,295.04,28.53,100.45-8.07,188.03-35.7,253.28-79.9,9.77-6.62,18.23-12.57,25.8-18.17v-2.99Z"/>
      <path class="cls-27" d="M2400,634.54c-15.05,11.02-31.64,21.26-47.33,30.69-129.08,77.61-336.3,92.37-540.81,38.52-107.08-27.89-206.1-66.69-301.86-104.22-72.35-28.35-145.75-58.11-231.01-93.67-69.56-29.19-144.7-59.69-222.75-84.98-95.27-30.87-173.41-44.33-253.35-43.64-99.23.86-207.36,26.8-330.58,79.32-69.62,29.67-140.74,65.09-211.37,105.27-58.21,33.12-113.98,67.21-167.91,100.18-31.39,19.19-62.24,38.05-93.03,56.42v2.68c31.43-18.73,62.91-37.97,94.96-57.56,53.92-32.96,109.66-67.04,167.83-100.13,70.53-40.12,141.53-75.48,211.04-105.11,122.73-52.31,230.36-78.15,329.04-79,79.48-.69,157.22,12.71,252.08,43.45,77.93,25.25,152.98,55.72,222.48,84.88,85.28,35.56,158.71,65.34,231.08,93.69,95.86,37.56,194.98,76.41,302.26,104.35,205.52,54.11,413.9,39.2,543.82-38.91,15.02-9.03,30.85-18.81,45.41-29.31v-2.93Z"/>
      <path class="cls-3" d="M2400,596.8c-6.07,4.09-12.25,8.13-18.57,12.1-14.54,9.14-30.45,17.63-48.23,26.99-129.51,68.16-335.07,78.18-536.47,26.14-93.69-23.93-182.56-55.54-268.5-86.1-11.16-3.97-22.26-7.92-33.32-11.83-86.56-30.62-162.45-57.59-232.02-82.43-59.76-21.5-139.07-49.14-222.66-72.14-64.22-17.68-150.8-37.62-251.15-34.93-96.96,2.6-204.2,28.4-327.82,78.88-69.51,28.38-141.08,61.81-212.71,99.37-52.34,27.44-102.91,55.36-151.81,82.36-32.64,18.02-64.74,35.74-96.74,52.99v2.59c32.6-17.56,65.29-35.61,98.55-53.97,48.89-26.99,99.44-54.9,151.75-82.33,71.54-37.51,143.01-70.9,212.42-99.24,123.19-50.3,229.96-76,326.42-78.59,99.8-2.67,186,17.19,249.96,34.79,83.47,22.97,162.69,50.58,222.4,72.06,69.57,24.85,145.47,51.81,232.03,82.44,11.06,3.91,22.16,7.86,33.31,11.83,86.02,30.59,174.97,62.22,268.82,86.19,202.33,52.28,408.98,42.15,539.3-26.44,17.84-9.39,33.8-17.91,48.43-27.11,5.64-3.55,11.16-7.15,16.61-10.8v-2.82Z"/>
      <path class="cls-6" d="M2400,562.3c-12.04,7.2-24.38,14.22-37.19,21.01-13.74,7.28-28.35,13.88-43.82,20.87l-5.25,2.37c-129.83,58.76-333.73,64.03-532.14,13.76-80.42-20.13-157.74-45.17-232.51-69.38-22.8-7.38-46.38-15.02-69.28-22.25-87.91-27.79-167.14-51.58-233.03-71.19-82.66-24.83-153.38-43.68-222.56-59.31-64.39-14.55-150.87-30.67-248.94-26.23-95.85,4.34-199.14,29.27-325.08,78.44-69.31,27.06-141.33,58.51-214.05,93.47-43.66,20.99-86.27,42.13-127.48,62.57-36.69,18.2-72.75,36.09-108.68,53.46v2.49c36.49-17.62,73.1-35.79,110.37-54.27,41.2-20.44,83.8-41.58,127.44-62.55,72.64-34.92,144.57-66.33,213.8-93.36,125.53-49.01,228.42-73.85,323.8-78.17,97.58-4.42,183.71,11.64,247.85,26.13,69.08,15.61,139.72,34.43,222.31,59.24,65.89,19.61,145.09,43.4,232.98,71.18,22.89,7.24,46.46,14.87,69.26,22.25,74.83,24.23,152.21,49.29,232.75,69.45,199.26,50.49,404.18,45.14,534.78-13.98l5.24-2.37c15.52-7.01,30.18-13.63,44.01-20.96,12.19-6.46,23.94-13.12,35.42-19.95v-2.69Z"/>
      <path class="cls-47" d="M2400,531.26c-18.01,9.2-36.49,18.05-55.79,26.45-12.09,5.26-24.76,10.02-38.17,15.06-3.88,1.46-7.8,2.93-11.75,4.43-131.95,50.17-329.26,50.68-527.82,1.37-67.18-16.47-132.59-35.84-195.84-54.58-36.53-10.82-71.03-21.04-105.92-30.76-91.42-25.48-173.11-45.42-234.05-59.95-75.3-18.16-148.07-33.36-222.45-46.47-68.66-12.09-151.67-23.63-246.74-17.52-93.14,5.99-195.56,30.77-322.33,78-68.89,25.66-141.35,55.12-215.38,87.56-30.46,13.35-60.59,26.73-89.73,39.66-45.3,20.11-89.75,39.83-134.03,58.84v2.4c44.8-19.21,89.76-39.16,135.59-59.5,29.13-12.94,59.26-26.31,89.72-39.66,73.97-32.41,146.37-61.85,215.2-87.49,126.4-47.09,228.45-71.79,321.18-77.76,94.62-6.08,177.32,5.42,245.74,17.47,74.3,13.09,146.99,28.27,222.21,46.42,60.92,14.52,142.56,34.46,233.92,59.92,34.86,9.72,69.35,19.93,105.86,30.75,63.29,18.75,128.74,38.13,196,54.62,94.31,23.42,192.17,36.03,283.01,36.46,95.24.45,180.73-12.68,247.24-37.97,3.94-1.5,7.86-2.97,11.73-4.43,13.46-5.05,26.17-9.83,38.34-15.13,18.75-8.16,36.73-16.75,54.25-25.67v-2.53Z"/>
      <path class="cls-10" d="M2400,503.66c-24.05,10.06-48.6,19.57-74.37,28.46-10.69,3.69-21.77,7-33.5,10.51-5.68,1.7-11.44,3.43-17.27,5.23-131.29,40.58-327,36.46-523.52-11.01-53.22-12.86-105.69-27.14-156.44-40.96-50.19-13.66-97.6-26.57-145.3-38.09-92.73-22.41-174.34-37.81-235.07-48.71-68.15-12.43-138.81-23.11-222.35-33.63-69.1-8.7-152.19-16.55-244.51-8.82-91.31,7.64-189.88,31.56-319.58,77.56-68.82,24.4-139.7,51.11-216.71,81.66l-27.82,11.04c-62.16,24.68-122.98,48.81-183.56,71.65v2.33c61.06-23.01,122.34-47.31,184.99-72.19l27.81-11.04c76.96-30.53,147.81-57.22,216.59-81.61,129.37-45.88,227.62-69.73,318.57-77.34,91.93-7.69,174.75.13,243.64,8.81,83.47,10.5,154.05,21.18,222.13,33.6,60.69,10.9,142.23,26.27,234.85,48.66,47.64,11.51,95.02,24.41,145.19,38.07,50.77,13.82,103.27,28.11,156.54,40.98,197.21,47.65,393.73,51.74,525.7,10.95,5.82-1.8,11.57-3.52,17.24-5.22,11.76-3.52,22.88-6.85,33.65-10.56,25.32-8.74,49.46-18.07,73.1-27.92v-2.38Z"/>
      <path class="cls-32" d="M2400,479.41c-31.68,10.32-61.71,19.05-92.94,27.13-9.52,2.46-19.29,4.65-29.63,6.96-7.2,1.61-14.54,3.25-21.99,5.03-130.78,31.28-324.89,22.53-519.22-23.4-39.31-9.29-78.48-19.2-116.35-28.78-64.12-16.22-124.69-31.54-185.36-43.98-93.79-19.23-175.45-30.13-236.1-37.46-69.97-8.66-139.45-14.58-222.24-20.79-73.31-5.5-153.41-9.33-242.3-.13-111.72,11.57-222.85,45.47-316.82,77.12-66.19,22.29-135.48,46.36-218.04,75.76-66.34,23.62-132.32,46.77-198.99,68.6v2.26c67.12-21.96,133.53-45.26,200.3-69.03,82.54-29.39,151.81-53.46,217.98-75.74,93.77-31.57,204.64-65.4,315.95-76.93,88.56-9.17,168.43-5.35,241.54.14,82.73,6.21,152.15,12.12,222.05,20.77,60.58,7.33,142.13,18.21,235.78,37.41,60.58,12.42,121.11,27.73,185.18,43.94,37.89,9.58,77.07,19.49,116.42,28.79,194.93,46.07,389.75,54.82,521.14,23.4,7.44-1.78,14.76-3.42,21.94-5.02,10.37-2.32,20.17-4.51,29.76-6.99,30.92-8,60.65-16.63,91.96-26.8v-2.26Z"/>
      <path class="cls-54" d="M2400,458.13c-36.35,8.58-72.8,16.03-111.5,22.84-8.53,1.5-17.2,2.79-26.37,4.15-8.46,1.26-17.21,2.56-26.11,4.08-129.76,22.1-322.26,8.72-514.94-35.8-25.17-5.82-50.48-11.83-74.95-17.65-78.52-18.67-152.69-36.31-226.74-48.8-73.91-12.48-147.05-20.56-237.13-26.21-66.09-4.33-130.51-5.83-198.72-7.41l-23.42-.55c-69.38-1.65-150.86-2.48-240.08,8.57-105.72,13.09-213.43,44.59-314.07,76.67l-58.64,18.71c-56.1,17.9-109.09,34.81-160.72,51.15-67.17,21.25-128.73,39.73-186.61,55.94v2.21c58.23-16.3,120.18-34.89,187.79-56.28,51.64-16.34,104.63-33.25,160.73-51.15l58.64-18.71c100.46-32.03,207.95-63.46,313.34-76.51,88.93-11.01,170.23-10.18,239.45-8.54l23.43.55c68.16,1.58,132.54,3.08,198.54,7.4,89.94,5.65,162.94,13.71,236.71,26.16,73.92,12.47,148.03,30.1,226.48,48.75,24.48,5.82,49.79,11.84,74.97,17.66,193.18,44.64,386.3,58.04,516.58,35.85,8.86-1.51,17.59-2.81,26.03-4.06,9.2-1.37,17.9-2.67,26.48-4.18,38.46-6.76,74.7-14.16,110.83-22.67v-2.17Z"/>
      <path class="cls-52" d="M2400,439.65c-39.69,6.03-81.76,11.1-130.05,15.75-7.66.74-15.37,1.32-23.55,1.94-9.63.73-19.59,1.48-29.8,2.53-129.79,13.31-315.92-4.26-510.66-48.21-10.72-2.42-21.41-4.84-32.07-7.26-93.43-21.2-181.67-41.22-269.6-52.89-74.58-9.9-148.04-14.52-238.16-14.96-55.58-.42-109.28,1.31-166.12,3.15-18.43.59-37.03,1.2-55.91,1.73-77.56,2.18-154.12,5.14-237.85,17.25-102.95,14.89-210.24,45.83-311.31,76.23-76.98,23.16-151.23,44.68-220.69,63.96-60.11,16.68-117.91,31.54-174.23,44.75v2.16c56.66-13.28,114.8-28.22,175.28-45,69.49-19.29,143.77-40.81,220.77-63.98,100.93-30.37,208.06-61.25,310.73-76.11,83.5-12.08,159.93-15.03,237.36-17.21,18.89-.53,37.5-1.13,55.93-1.73,56.8-1.83,110.45-3.57,165.95-3.15,89.94.44,163.23,5.04,237.64,14.92,87.74,11.65,175.9,31.65,269.24,52.83,10.66,2.42,21.35,4.84,32.07,7.26,195.16,44.04,381.78,61.64,512,48.29,10.15-1.04,20.08-1.8,29.69-2.52,8.19-.62,15.93-1.21,23.63-1.95,48.14-4.64,90.11-9.69,129.71-15.7v-2.1Z"/>
      <path class="cls-50" d="M2400,423.65c-46.83,3.49-94.28,5.11-148.6,6.2-6.9.14-13.93.17-21.1.21-10.68.05-21.71.1-33.1.51-127.51,4.57-312.08-17.53-506.39-60.63-99.28-21.71-201.94-44.17-301.65-53.85-75.23-7.31-149-8.45-239.19-3.7-49.76,2.5-97.56,6.79-148.16,11.32-23.97,2.15-48.75,4.37-73.76,6.39l-8.62.7c-71.39,5.74-145.21,11.67-227,25.24-98.53,16.35-201.09,45.38-300.28,73.45l-8.28,2.34c-74.54,21.09-149.24,40.62-222.01,58.06-54.65,13.09-108.35,24.71-161.86,34.98v2.14c53.81-10.32,107.81-22,162.77-35.16,72.83-17.45,147.58-37,222.17-58.1l8.28-2.34c99.08-28.04,201.53-57.03,299.84-73.35,81.62-13.54,155.35-19.47,226.65-25.2l8.62-.69c25.03-2.02,49.82-4.24,73.8-6.39,50.56-4.54,98.32-8.82,148-11.31,89.97-4.74,163.54-3.6,238.56,3.68,99.47,9.66,202.01,32.09,301.17,53.78,194.63,43.17,379.58,65.3,507.43,60.72,11.32-.41,22.32-.46,32.96-.5,7.2-.03,14.25-.07,21.17-.21,54.3-1.1,101.76-2.71,148.58-6.19v-2.08Z"/>
      <path class="cls-42" d="M2400,409.81c-59.6.2-115.84-2.77-167.16-5.49-6.21-.33-12.51-.74-18.92-1.15-11.63-.75-23.65-1.53-36.13-1.9-122.98-3.69-301.3-29.63-502.12-73.05-92.32-19.69-199.37-41.23-301.62-47.55-75.85-4.69-149.94-2.36-240.22,7.57-46.23,4.97-90.45,11.52-137.26,18.45-27.44,4.06-55.82,8.26-84.56,12.1-11.63,1.55-23.42,3.1-35.38,4.67-62.69,8.21-127.5,16.71-198.02,29.95-82.63,15.51-168.98,38.69-252.5,61.1-17.76,4.77-35.53,9.54-53.3,14.24-73.75,19.54-148.89,37.09-223.34,52.16-49.54,10.03-99.16,18.8-149.48,26.4v2.1c50.59-7.63,100.46-16.44,150.25-26.52,74.52-15.09,149.74-32.65,223.57-52.22,17.78-4.71,35.55-9.48,53.31-14.25,83.44-22.39,169.72-45.55,252.2-61.03,70.4-13.22,135.16-21.71,197.79-29.91,11.96-1.57,23.76-3.11,35.39-4.67,28.76-3.84,57.16-8.04,84.62-12.11,46.77-6.92,90.95-13.46,137.1-18.42,90.04-9.9,163.9-12.22,239.49-7.55,101.97,6.3,208.85,27.81,301.02,47.46,201.05,43.47,379.64,69.45,502.86,73.14,12.4.37,24.39,1.15,35.98,1.9,6.43.42,12.74.82,18.97,1.15,51.4,2.73,107.73,5.69,167.46,5.5v-2.07Z"/>
      <path class="cls-19" d="M2400,398.03c-60.22-3.73-117.68-10.83-177.63-18.24l-8.1-1c-5.55-.69-11.16-1.43-16.86-2.18-12.55-1.65-25.52-3.36-39.03-4.65-149.82-14.21-355.88-55.59-497.84-85.48-90.57-18.82-197.24-38.44-301.61-41.24-76.47-2.05-150.88,3.76-241.24,18.83-44.04,7.25-86.02,15.93-130.46,25.12-29.6,6.12-60.21,12.45-91.26,18.26-22.86,4.28-46.02,8.42-70.55,12.81-51.25,9.16-104.26,18.64-160.63,30.49-65.35,13.73-133.69,31.44-199.78,48.56-33.8,8.76-68.75,17.81-103.26,26.34-73.41,18.13-149,33.7-224.66,46.27-45.21,7.51-90.63,13.86-137.11,19.1v2.09c46.69-5.26,92.32-11.63,137.74-19.17,75.76-12.59,151.45-28.18,224.97-46.33,34.54-8.53,69.5-17.59,103.3-26.35,66.05-17.12,134.34-34.81,199.6-48.52,56.31-11.83,109.28-21.31,160.51-30.46,24.53-4.39,47.71-8.53,70.58-12.81,31.09-5.82,61.72-12.15,91.34-18.27,44.4-9.18,86.33-17.85,130.3-25.09,90.09-15.03,164.24-20.83,240.43-18.78,104.05,2.79,210.48,22.37,300.88,41.16,142.05,29.91,348.25,71.32,498.28,85.55,13.44,1.28,26.38,2.98,38.88,4.63,5.7.75,11.33,1.49,16.89,2.18l8.1,1c60.13,7.43,117.76,14.55,178.21,18.28v-2.08Z"/>
      <path class="cls-57" d="M2400,387.96c-63.93-7.79-124.34-19.35-187.51-31.46l-16.81-3.22c-4.9-.94-9.85-1.91-14.84-2.89-13.45-2.65-27.37-5.39-41.88-7.7-102.78-16.33-228.09-42.56-360.75-70.33-43.61-9.13-88.69-18.56-132.8-27.6-122.76-24.83-215.77-35.6-301.59-34.93-77.08.61-151.79,9.89-242.25,30.11-42.65,9.45-85.07,20.72-126.09,31.61-30.98,8.23-63.01,16.74-95.53,24.59-38.54,9.3-78.74,18.22-121.29,27.66-34.7,7.7-70.59,15.66-107.67,24.3-46.03,10.73-91.87,22.48-140.4,34.93-52.19,13.39-106.16,27.23-159.88,39.53-73.27,16.78-149.31,30.36-225.98,40.37-42.24,5.52-83.86,9.7-124.74,12.82v2.08c41.03-3.13,82.81-7.33,125.22-12.87,76.8-10.03,152.97-23.64,226.37-40.45,53.77-12.31,107.76-26.16,159.98-39.55,48.51-12.44,94.32-24.19,140.32-34.91,37.05-8.64,72.93-16.59,107.62-24.29,42.58-9.44,82.79-18.37,121.37-27.68,32.56-7.86,64.61-16.37,95.61-24.61,40.98-10.89,83.35-22.15,125.93-31.58,90.17-20.15,164.61-29.41,241.38-30.01,85.51-.67,178.26,10.08,300.73,34.85,44.1,9.03,89.18,18.47,132.78,27.59,132.71,27.78,258.06,54.01,360.94,70.36,14.44,2.3,28.32,5.03,41.74,7.67,5,.99,9.96,1.96,14.86,2.9l16.81,3.22c63.43,12.16,124.08,23.77,188.35,31.58v-2.11Z"/>
      <path class="cls-4" d="M2400,379.47c-69.74-12.34-134.9-29.08-203.24-46.65l-19.68-5.06c-4.17-1.07-8.38-2.16-12.61-3.26-14.44-3.75-29.37-7.63-44.94-11.09-48.24-10.71-101.33-23.2-157.55-36.43-102.69-24.16-219.09-51.54-331.71-73.94-118.08-23.22-213.9-32.32-301.57-28.62-77.67,3.28-152.7,16.04-243.26,41.38-41.83,11.63-83.32,25.11-123.44,38.14-31.81,10.33-64.7,21.01-98.07,30.89-63.26,18.74-132.03,36.36-204.83,55.01l-21.91,5.62c-23.73,6.09-48.23,12.52-71.93,18.74-73.31,19.24-149.11,39.14-225.59,55.27-73.25,15.45-149.72,27.06-227.3,34.49-37.82,3.62-75.28,6.11-112.37,7.67v2.07c37.19-1.57,74.77-4.06,112.71-7.69,77.74-7.45,154.37-19.07,227.76-34.56,76.57-16.16,152.42-36.07,225.78-55.32,23.69-6.22,48.19-12.65,71.91-18.73l21.91-5.62c72.84-18.66,141.65-36.29,204.97-55.05,33.42-9.9,66.33-20.59,98.16-30.93,40.09-13.02,81.54-26.48,123.29-38.09,90.25-25.25,164.99-37.97,242.32-41.23,87.32-3.68,182.84,5.39,300.58,28.54,112.55,22.39,228.91,49.77,331.57,73.92,56.23,13.23,109.33,25.72,157.59,36.44,15.51,3.44,30.41,7.32,44.81,11.06,4.24,1.1,8.45,2.2,12.63,3.27l19.67,5.05c68.67,17.66,134.14,34.47,204.32,46.85v-2.14Z"/>
      <path class="cls-17" d="M2400,372.39c-77.78-17.78-151.62-41.38-223.28-64.3l-28.09-8.99c-15.6-5.01-31.74-10.19-48.54-14.97l-15.41-4.38c-135.48-38.55-304.1-86.52-469.54-118.44-115.61-22.09-211.43-29.18-301.55-22.3-78.26,5.97-153.6,22.2-244.26,52.65-41.42,13.85-82.4,29.58-122.03,44.8-32.25,12.38-65.6,25.19-99.38,37.07-61.11,21.49-130.36,42.86-224.54,69.29-84.79,23.8-190.32,53.42-294.76,73.57-73.29,14.14-150.21,23.76-228.62,28.6-33.56,2.07-66.92,3.17-100,3.49v2.07c33.14-.33,66.56-1.43,100.19-3.5,78.59-4.85,155.69-14.49,229.16-28.67,104.61-20.18,210.22-49.82,295.08-73.64,94.26-26.45,163.58-47.85,224.78-69.37,33.83-11.9,67.21-24.71,99.48-37.1,39.59-15.2,80.54-30.92,121.88-44.75,90.35-30.34,165.38-46.52,243.28-52.45,89.74-6.84,185.2.23,300.44,22.24,165.27,31.89,333.8,79.84,469.22,118.36l15.41,4.38c16.74,4.76,32.84,9.93,48.42,14.93l28.09,8.99c72.04,23.04,146.28,46.77,224.57,64.61v-2.19Z"/>
      <path class="cls-12" d="M2400,366.63c-86.46-23.87-168.14-54.92-247.31-85.01l-18.95-7.2c-17.09-6.5-34.77-13.22-53.11-19.56-133.19-46.06-308.19-103.06-480.63-135.28-111.98-20.76-210.61-25.99-301.52-15.99-78.84,8.67-154.48,28.39-245.26,63.92-41.3,16.12-82.08,34.19-121.52,51.67-32.41,14.36-65.92,29.21-99.8,43.03-66.09,26.95-138.82,52.45-222.34,77.95-78.67,24.03-182.95,54.05-292,73.12-73.35,12.82-150.71,20.47-229.95,22.71-29.35.83-58.57.88-87.62.29v2.07c29.07.59,58.3.54,87.68-.29,79.44-2.25,157.01-9.91,230.56-22.77,109.27-19.11,213.7-49.18,292.47-73.24,83.63-25.54,156.46-51.08,222.66-78.07,33.92-13.83,67.46-28.7,99.9-43.07,39.4-17.46,80.14-35.51,121.37-51.61,90.45-35.41,165.78-55.05,244.24-63.68,90.5-9.96,188.73-4.74,300.3,15.94,172.18,32.18,347.02,89.12,480.09,135.14,18.28,6.33,35.94,13.04,53.01,19.53l18.95,7.2c79.59,30.25,161.74,61.47,248.78,85.42v-2.23Z"/>
      <path class="cls-25" d="M2400,362c-96.61-30.96-187.42-70.72-275.29-109.23l-3.5-1.53c-19.27-8.44-39.19-17.17-60.04-25.64-117.31-47.67-294.32-114.86-476.3-147.74-110.21-19.8-208.84-22.96-301.5-9.67-79.41,11.39-155.35,34.58-246.24,75.2-41.42,18.48-82.24,38.98-121.71,58.81-32.35,16.25-65.8,33.06-99.51,48.71-67.79,31.49-141.86,60.63-220.14,86.62-106.39,35.07-201,58.84-289.24,72.67-73.9,11.59-149.56,17.09-231.28,16.83-25.23-.14-50.3-.86-75.25-2.08v2.07c24.92,1.22,49.96,1.93,75.16,2.07,81.95.27,157.82-5.25,231.95-16.88,88.46-13.87,183.27-37.69,289.87-72.83,78.42-26.03,152.62-55.22,220.53-86.77,33.75-15.68,67.23-32.49,99.6-48.76,39.44-19.81,80.23-40.3,121.58-58.75,90.56-40.47,166.19-63.57,245.21-74.91,92.22-13.23,190.4-10.07,300.17,9.65,181.63,32.82,358.4,99.92,475.56,147.53,20.81,8.46,40.71,17.18,59.96,25.61l3.5,1.53c88.34,38.71,179.65,78.7,276.91,109.77v-2.3Z"/>
      <path class="cls-55" d="M2400,358.49c-1.55-.56-3.09-1.11-4.64-1.67-100.33-36.7-195.75-82.94-292.8-131.08-19.36-9.55-40.01-19.69-60.86-29.41-182.15-84.9-332.12-135.81-471.96-160.2-108.36-18.84-206.98-19.93-301.48-3.35-80.25,14.26-156.5,40.93-247.22,86.47-41.75,20.94-82.81,44-122.52,66.3-32.1,18.03-65.28,36.66-98.61,54.06-70.1,36.58-143.43,68.64-217.96,95.28-98.54,35.1-194.93,59.4-286.47,72.22-73.89,10.15-152.15,13.83-232.61,10.94-20.99-.78-41.95-2.01-62.87-3.6v2.08c20.85,1.59,41.73,2.81,62.65,3.58,80.7,2.89,159.21-.8,233.35-10.98,91.82-12.86,188.47-37.23,287.26-72.42,74.69-26.7,148.17-58.82,218.4-95.47,33.37-17.41,66.58-36.07,98.7-54.1,39.68-22.29,80.71-45.33,122.39-66.23,90.4-45.38,166.32-71.94,246.19-86.13,94.01-16.5,192.15-15.4,300.03,3.35,139.51,24.33,289.19,75.15,471.05,159.92,20.83,9.7,41.45,19.84,60.8,29.37,97.13,48.18,192.64,94.47,293.13,131.22,2.02.74,4.04,1.46,6.06,2.19v-2.35Z"/>
      <path class="cls-9" d="M1586,0h-11.1c179.91,34.13,352.48,116.93,507.13,201.86,105.8,58.09,211.11,113.3,317.96,156.29v-2.41c-106.19-42.84-210.9-97.75-316.09-155.51C1931.93,116.77,1762.67,35.37,1586,0Z"/>
      <path class="cls-31" d="M1241.22,0c-138.13,31.49-250.93,101.51-360.1,169.3-31.68,19.67-64.43,40.01-97.19,59-166.86,96.76-334.91,155.88-499.49,175.73-95.06,11.46-190.6,10.07-284.43.62v2.1c93.94,9.43,189.63,10.8,284.87-.69,165.11-19.91,333.65-79.19,500.92-176.19,32.8-19.02,65.57-39.37,97.27-59.05C994.35,101.73,1109.41,30.31,1251.02,0h-9.79Z"/>
    </g>
  </g>
</svg>