<?xml version="1.0" encoding="UTF-8"?>
<svg id="Layer_2" data-name="Layer 2" xmlns="http://www.w3.org/2000/svg" viewBox="0 0 709.7 253.99">
  <defs>
    <style>
      .cls-1 {
        fill: none;
      }

      .cls-2 {
        fill: #02f180;
      }
    </style>
  </defs>
  <g id="Layer_1-2" data-name="Layer 1">
    <g>
      <g>
        <path class="cls-2" d="M244.26,13.78c-19.81,12.65-37.61,25.2-58.01,35.95-44.68,23.55-90.95,43.12-139.47,56.84-8.8,2.49-18.23,1.69-25.92-1.19C7.3,100.32.19,88.24.14,74.16L0,41.1c-.03-7.12,5.84-12.03,12.89-12.13l16.27-.22c43.79-.59,86.75-2.43,130.39-6.84,24.38-2.47,47.54-5.8,71.09-11.73,9.96-2.51,18.74-5.64,28.13-10.19-5,9.13-7.89,17.99-10.43,27.83-5.86,22.7-8.81,45.03-11.35,68.57-4.65,48.3-6.02,95.94-6.04,144.48,0,6.63-4.61,12.12-11.17,12.15l-36.06.16c-16.36.07-32.05-11.15-35.6-27.33-2.91-13.26-1.03-26.5,3.41-39.26,12.68-36.44,28.17-70.98,47.15-104.54,13.07-24.11,28.35-44.66,45.59-68.26Z"/>
        <path class="cls-2" d="M11.44,253.78c-6.55-.02-10.61-6.16-10.65-11.76l-.37-49.39c-.15-20.34,9.11-38.29,28.38-45.87,40.98-16.13,80.04-35.24,118.15-57.41,23.33-13.57,43.65-28.72,66.66-45.01-16.15,22.34-31.34,42.05-44.95,64.7-22.79,37.95-42.11,76.85-58.8,117.89-6.91,16.99-23.8,27.13-41.93,27.06l-56.49-.21Z"/>
      </g>
      <g>
        <path class="cls-1" d="M536.61,180.4c.32.86,1.08,1.54,2.27,2.02,1.19.49,2.45.73,3.79.73,1.01,0,2.08-.1,3.21-.29v-8.21c-2.46.67-4.54,1.52-6.21,2.55-1.68,1.04-2.7,2.1-3.06,3.2Z"/>
        <path class="cls-1" d="M646.95,178.14c-.7-.53-1.45-.79-2.27-.79-1.51,0-3.42.8-5.73,2.41-2.3,1.6-5.03,3.89-8.17,6.87h5.29c3.95,0,6.76-.07,8.43-.21,1.67-.14,2.95-.42,3.84-.85.23-.35.43-.8.58-1.35.15-.55.23-1.11.23-1.7,0-.74-.19-1.53-.58-2.35-.39-.82-.93-1.5-1.63-2.02Z"/>
        <path class="cls-1" d="M490.31,176.06c-2.19-.7-4.28-1.06-6.28-1.06-2.23,0-4.44.35-6.63,1.06.94.55,1.9,1.27,2.88,2.17.98.9,2.19,2.11,3.64,3.64,2.11-1.49,4.24-3.42,6.4-5.81Z"/>
        <path class="cls-1" d="M696.63,179.81c-.81-1.02-1.63-1.53-2.46-1.53-.59,0-1.16.25-1.69.73-.53.49-1.04,1.11-1.51,1.88-.47.76-1.13,1.93-1.96,3.49,1.5.94,2.94,1.67,4.3,2.2,1.37.53,2.52.79,3.47.79,1.03,0,1.84-.21,2.43-.65.08-.9-.13-2.02-.62-3.37s-1.15-2.53-1.96-3.55Z"/>
        <path class="cls-1" d="M416.1,180.02c-.8-1.15-1.55-1.73-2.26-1.73-.78,0-1.58.55-2.41,1.64-.82,1.1-1.72,2.62-2.7,4.58,1.37.94,2.75,1.68,4.14,2.23,1.39.55,2.55.82,3.49.82,1.25,0,2.23-.41,2.93-1.23l-.35-.76c-1.1-2.54-2.04-4.39-2.85-5.55Z"/>
        <path class="cls-1" d="M698.56,96.37c-1.82-1.82-3.52-2.47-6.25-2.34-2.08,0-3.78.39-6.12.65-1.56,3.13-3.39,5.99-4.56,8.47l20.19,6.9c.65-1.95.26-4.43-.52-7.55-.65-2.34-1.56-4.04-2.73-6.12Z"/>
        <path class="cls-1" d="M314.32,180.4c.32.86,1.08,1.54,2.27,2.02,1.19.49,2.45.73,3.79.73,1.01,0,2.08-.1,3.21-.29v-8.21c-2.46.67-4.54,1.52-6.21,2.55-1.68,1.04-2.7,2.1-3.06,3.2Z"/>
        <path d="M316.93,115.39c.26.39.39.65.65.91,1.17,1.56,2.74,2.47,4.3,3.39.39.13.65.39,1.04.52,2.21.91,6.12,2.08,8.6,2.08,2.34.39,4.82.78,7.29.52h3.65l4.95.13h9.77c4.04,0,6.77,0,9.9-.78,2.21-.91,5.08-1.82,6.77-3.78,3.65-4.95,5.08-8.99,5.08-15.24v-7.16c0-1.04-.13-5.6-.13-6.9,0-1.04-.26-5.47-.26-6.64l.52-21.23-.13-7.68-8.99.13.26,6.9v7.16l-.26,7.16.52,13.55.13,7.03-.65,7.03v7.16c-2.21.78-5.6,1.56-8.99,1.56h-7.16l-5.99.13-7.68-.13c-4.95-.13-8.21-.65-10.94-1.3-.39-.13-.91-.13-1.3-.26-3.39-1.17-5.6-5.47-5.99-8.86l1.43-12.89-6.51-.78c-.65,3.26-1.95,5.99-2.08,8.73-.39,2.47-.78,5.21-1.04,7.29l-.13.91c-.39,2.34.39,4.69.91,6.12.78,2.08,1.69,3.65,2.47,5.21Z"/>
        <path d="M356.14,89.08v-2.87c0-1.3-.26-2.47-.78-2.87-.52-.52-1.3-.26-2.21-.39-6.9-.91-7.81-.91-7.81-1.69,0-.91,1.43-2.08,6.51-2.08h3.91l1.17-6.64h-3.78c-7.68,0-10.03,6.64-10.55,8.73-.65,2.34-.78,5.6-.13,6.77.78,1.56,3.91.91,7.16,1.3.65.13,3.39.39,3.65.39-2.08,1.95-3.91,4.56-8.99,4.3-2.21-.13-5.21.78-8.99,1.04v2.87c1.82,1.04,5.73,2.21,9.25,2.21,6.77,0,11.59-4.04,11.59-11.07Z"/>
        <path d="M392.61,127.63c-1.56,1.82-4.17,3.26-6.38,4.3-3,.39-6.12.91-10.68,1.3l-.52,6.9c2.6,1.04,6.77,2.6,10.16,2.87,3.26,0,4.69-.78,7.68-1.56,1.69-1.17,3-1.95,4.3-3.52.13-.26.39-.52.52-.78,1.82-1.82,3.13-4.3,3.91-6.77,1.56-3.13,2.47-12.5,2.74-16.15,0-2.21-.65-4.82-.78-7.03,0-4.69-1.43-8.99-2.61-13.42-.52-2.74-.91-4.3-1.3-6.64l-8.6,2.6c1.04,4.17,1.3,5.99,1.82,7.94.65,2.48,1.04,5.6,1.82,7.82,1.04,3.78,1.69,7.29,2.21,11.2.52,2.08.13,4.3-1.04,6.25-.91,1.69-1.3,3.26-3.26,4.69Z"/>
        <path d="M709.24,98.06c-.13-3-1.3-5.21-2.6-7.42-1.17-2.34-2.61-3.91-4.43-5.47-1.95-1.3-4.17-2.08-6.9-2.08-2.08,0-4.43.65-5.99,1.43-3,1.3-7.55,6.64-8.99,9.51-1.04,2.08-2.34,5.21-3.52,7.94-1.43,2.48-3.13,4.82-5.08,7.29-2.32,1.42-6.29,1.94-8.64,1.95-4.26-.13-6.47-.65-8.29-1.69-1.04-1.04-1.56-3.52-1.43-6.51v-3.26l-.26-9.64-9.38.26.39,17.71c-.13,1.56-1.17,2.34-1.56,3.39-.78.52-2.47.78-4.3.78-2.21,0-4.56-1.3-6.9-2.21-1.43-.52-2.6-1.04-3.78-1.56.13-.26.13-.39.26-.65,1.04-3.13,1.56-6.12,3-9.51l-5.73-1.82-2.74-.65c-1.56,4.69-2.21,7.16-3,9.64-.65,1.69-1.82,3-3.13,4.82-1.95.65-4.17.78-6.25.78-2.61,0-5.34-.52-7.95-1.3-1.17-.65-2.61-1.43-3.91-2.21,1.3-2.08,2.6-4.56,4.17-7.16l-5.08-2.34-2.21-1.17c-1.82,3.26-3.26,5.47-4.56,7.55-1.04,1.56-2.21,3.13-3.26,5.34-1.04.52-2.21,1.17-3.52,1.56-13.42,3.78-27.61,5.08-41.55,5.08-4.43,0-8.99-.13-13.68.13-10.03.39-20.45,1.95-30.74,2.08-10.16,0-20.06-1.04-29.31-1.43-7.03-.26-35.3-3.26-40.9-5.99-3.52-1.69-4.95-5.47-5.08-9.9v-3l-.13-4.69.26-8.08-.26-7.95.52-8.08v-15.63h-8.86l-.26,7.29.26,6.9-.52,7.29.52,7.03-.13,7.81-.39,6.77.39,7.68c-.13,2.34.39,4.69.39,7.42.26,1.3-.13,3.91,4.43,7.16,7.68,5.47,35.43,9.51,45.33,10.03,9.25.65,19.28,1.82,29.44,1.69,10.94-.13,22.14-1.95,32.82-2.6,9.12-.65,17.97-.39,25.92-1.3,17.19-1.95,30.48-5.08,35.43-7.42,3.52-1.69,3.65-2.47,4.95-4.04q.13-.13.26-.26c4.95,4.95,9.64,6.77,16.41,7.82,2.34,0,3.91-.52,6.12-.91,1.56-.78,3.13-1.56,4.82-2.74,1.04-.78,2.08-1.95,3-3.39,1.95,2.34,4.56,4.69,7.42,5.86,2.08.91,3.78,1.43,6.51,1.17,1.95.13,4.69-.91,6.51-1.56,1.3-1.43,2.6-3.78,3.39-5.86.13.39.39.65.52.91,2.74,4.69,6.77,6.25,11.98,6.25,7.16,0,10.68-1.82,14.98-7.16.65-1.04,1.43-2.08,2.08-3.13l4.56,1.95,6.12,1.95,6.9,3.13,6.38,2.21,3.52-.65c1.69-3,5.34-11.33,5.6-14.59.26-3-.26-5.73-.39-8.6ZM701.82,110.05l-20.19-6.9c1.17-2.47,3-5.34,4.56-8.47,2.34-.26,4.04-.65,6.12-.65,2.73-.13,4.43.52,6.25,2.34,1.17,2.08,2.08,3.78,2.73,6.12.78,3.13,1.17,5.6.52,7.55Z"/>
        <polygon points="326.23 160.04 329.52 155.05 324.24 151.41 320.95 156.34 326.23 160.04"/>
        <polygon points="321.19 155.05 315.91 151.41 312.68 156.34 317.96 160.04 321.19 155.05"/>
        <polygon points="386.97 201.76 392.25 205.46 395.54 200.47 390.26 196.83 386.97 201.76"/>
        <polygon points="381.81 196.83 378.52 201.76 383.86 205.46 387.09 200.47 381.81 196.83"/>
        <polygon points="433.39 196.83 430.1 201.76 435.44 205.46 438.67 200.47 433.39 196.83"/>
        <polygon points="438.55 201.76 443.83 205.46 447.12 200.47 441.84 196.83 438.55 201.76"/>
        <polygon points="507.97 161.97 513.25 165.67 516.54 160.68 511.26 157.04 507.97 161.97"/>
        <path d="M510.5,171.48h-.57l-4.6,3.76c.94,1.96,1.68,3.69,2.23,5.19s.82,2.85.82,4.02c0,.63-.08,1.15-.24,1.58-.87.39-2.89.59-6.06.59h-1.72s-.05,0-.08,0c-2.39,0-4.64-.16-6.75-.47-2.11-.31-3.97-.8-5.58-1.47l2.7-2.41c.2-.16.5-.44.91-.85s.98-.93,1.7-1.55c.72-.62,1.42-1.17,2.08-1.64l1.41-5.16-.18-.59c-1.56-1.02-3.36-1.77-5.4-2.26-2.03-.49-4.13-.73-6.28-.73s-4.08.2-6.02.59c-1.94.39-3.67.96-5.19,1.7l-2.17,5.63.18.53c2.86,1.37,5.55,3.46,8.1,6.28-3.48,1.61-7.59,2.41-12.32,2.41h0s0,0,0,0c-1.61,0-2.84-.13-3.71-.38s-1.53-.8-1.99-1.64c-.46-.84-.69-2.12-.69-3.84v-28.34l-.51-.29-5.07,1.41v27.64c0,1.84-.14,3.34-.41,4.52-.63.39-1.37.65-2.23.76-.86.12-1.84.18-2.93.18-3.68,0-6.46-.49-8.33-1.47.51-1.13.98-2.44,1.41-3.9.43-1.47.88-3.2,1.35-5.19l-.59-.41-5.87,1.41c-.9,4.34-1.72,7.22-2.46,8.63-.43.31-1.04.55-1.82.7-.78.16-1.6.23-2.46.23h-1.59s-.07,0-.12,0c-1.21,0-2.17-.13-2.88-.38s-1.33-.72-1.88-1.41c-.55-.68-1.17-1.75-1.88-3.2-1.02-2.07-1.89-3.7-2.61-4.87s-1.59-2.14-2.61-2.9-2.21-1.14-3.58-1.14-2.62.42-3.76,1.26c-1.13.84-2.12,1.85-2.96,3.02-.84,1.17-1.81,2.7-2.91,4.58l-1.06,1.82c-.59.94-1.09,1.62-1.5,2.05-.41.43-.87.73-1.38.91-.51.18-1.19.26-2.05.26h0s-.04,0-.06,0c-3.68,0-6.46-.49-8.33-1.47.51-1.13.98-2.44,1.41-3.9.43-1.47.88-3.2,1.35-5.19l-.59-.41-5.87,1.41c-.9,4.34-1.72,7.22-2.46,8.63-.43.31-1.04.55-1.82.7-.78.16-1.6.23-2.46.23h-1.58v.06s-.04,0-.06,0h-41.46c-.24-.03-.49-.06-.79-.06-1.69,0-2.98-.12-3.89-.35-.9-.24-1.57-.67-1.99-1.32-.42-.65-.63-1.61-.63-2.91v-17.96l-.45-.12-5.12,2.23v2.76c-2.9.94-5.38,2.11-7.45,3.52-2.07,1.41-3.64,2.92-4.69,4.55-1.06,1.62-1.58,3.22-1.58,4.78,0,1.41.41,2.64,1.23,3.7.82,1.06,2,1.87,3.52,2.44,1.53.57,3.31.85,5.34.85,1.76,0,3.36-.23,4.81-.7.82,1.57,2.02,2.68,3.61,3.34,1.58.67,3.55,1,5.9,1,.04,0,.08,0,.12,0h0s4.69,0,4.69,0c0,0,0,0,0,0h0s4.69,0,4.69,0h9.39s0,0,0,0h0s4.69,0,4.69,0h20.77c1.84,0,3.43-.22,4.78-.67,1.35-.45,2.53-1.14,3.55-2.08,1.13.94,2.58,1.63,4.34,2.08,1.74.45,3.64.67,5.69.67h0s.03,0,.04,0c0,0,.01,0,.02,0,0,0,0,0,.01,0,1.61,0,2.94-.09,3.98-.26,1.06-.18,2-.52,2.82-1.03.82-.51,1.62-1.25,2.41-2.23,1.88,1.33,3.81,2.37,5.81,3.11,2,.74,3.76,1.12,5.28,1.12,1.13,0,2.09-.23,2.88-.67s1.43-1.12,1.94-2.02c.78.7,1.65,1.21,2.61,1.53.96.31,2.06.47,3.32.47.04,0,.08,0,.12,0h0s2,0,2,0c1.84,0,3.43-.22,4.78-.67,1.35-.45,2.53-1.14,3.55-2.08,1.13.94,2.58,1.63,4.34,2.08,1.74.45,3.64.67,5.69.67h0s.02,0,.03,0c0,0,.02,0,.03,0,.01,0,.02,0,.03,0,2.58,0,4.65-.26,6.22-.76,1.58-.51,2.88-1.39,3.9-2.64.82,1.25,1.9,2.13,3.23,2.64,1.33.51,2.72.76,4.17.76,3.68,0,6.91-.39,9.71-1.17,2.8-.78,5.35-1.88,7.66-3.29,2,1.45,4.29,2.55,6.9,3.32,2.6.76,5.43,1.14,8.48,1.14.02,0,.04,0,.06,0h0s1.82,0,1.82,0c2.82,0,4.93-.17,6.34-.5,1.41-.33,2.56-.93,3.46-1.79.94-.9,1.66-2.01,2.17-3.35.51-1.33.76-2.7.76-4.11,0-1.29-.28-2.96-.83-5.02-.55-2.05-1.29-4.12-2.21-6.19ZM323.59,182.04v.82c-1.13.2-2.2.29-3.21.29-1.33,0-2.6-.24-3.79-.73-1.19-.49-1.95-1.16-2.27-2.02.36-1.09,1.38-2.16,3.06-3.2,1.68-1.04,3.75-1.89,6.21-2.55v7.39ZM416.37,187.56c-.94,0-2.1-.27-3.49-.82-1.39-.55-2.77-1.29-4.14-2.23.98-1.96,1.88-3.48,2.7-4.58.82-1.09,1.62-1.64,2.41-1.64.7,0,1.46.58,2.26,1.73.8,1.15,1.75,3,2.85,5.55l.35.76c-.7.82-1.68,1.23-2.93,1.23ZM480.27,178.23c-.98-.9-1.94-1.62-2.88-2.17,2.19-.7,4.4-1.06,6.63-1.06,2,0,4.09.35,6.28,1.06-2.15,2.39-4.28,4.32-6.4,5.81-1.45-1.53-2.66-2.74-3.64-3.64Z"/>
        <polygon points="508.2 160.68 502.92 157.04 499.7 161.97 504.98 165.67 508.2 160.68"/>
        <polygon points="551.8 155.05 546.52 151.41 543.24 156.34 548.52 160.04 551.8 155.05"/>
        <polygon points="534.96 156.34 540.24 160.04 543.47 155.05 538.19 151.41 534.96 156.34"/>
        <polygon points="675.15 164.67 669.69 160.92 666.29 165.96 671.75 169.78 675.15 164.67"/>
        <path d="M699.21,174.59c-1.56-1.25-3.23-1.88-4.99-1.88-1.64,0-3.21.62-4.69,1.85-1.49,1.23-2.78,2.82-3.87,4.75-1.1,1.94-1.72,3.06-1.88,3.37-.59,1.06-1.11,1.86-1.56,2.41s-.95.94-1.5,1.17c-.54.23-1.23.35-2.08.35-2.73,0-5.03-.49-6.9-1.47.55-1.13,1.04-2.42,1.47-3.87.43-1.45.88-3.19,1.35-5.22l-.59-.41-5.87,1.41c-.55,2.43-1.01,4.31-1.38,5.66-.37,1.35-.73,2.34-1.09,2.96-.86.63-2.46.94-4.81.94h-1.17c-2.35,0-4.4-.35-6.16-1.06.55-1.29.82-2.62.82-3.99,0-1.6-.38-3.16-1.14-4.67-.76-1.5-1.81-2.74-3.14-3.7-1.33-.96-2.84-1.44-4.52-1.44s-3.53.56-5.55,1.67-4.22,2.71-6.63,4.78c-2.41,2.07-5.41,4.85-9.01,8.33-2.07-.08-3.72-.29-4.93-.65.98-1.84,1.94-4.17,2.88-6.98l-.23-.23-6.04,1c-.39,1.41-.78,2.68-1.17,3.81-.39,1.14-.74,1.98-1.06,2.52-.31.2-.87.34-1.67.44-.8.1-1.63.15-2.49.15v.06h-9.39s0,0,0,0h-28.17s0,0,0,0h-13.29c-.24-.03-.49-.06-.79-.06-1.69,0-2.98-.12-3.89-.35-.9-.24-1.57-.67-1.99-1.32s-.63-1.61-.63-2.91v-17.96l-.45-.12-5.12,2.23v2.76c-2.9.94-5.38,2.11-7.45,3.52-2.07,1.41-3.64,2.92-4.69,4.55-1.06,1.62-1.58,3.22-1.58,4.78,0,1.41.41,2.64,1.23,3.7.82,1.06,2,1.87,3.52,2.44,1.53.57,3.3.85,5.34.85,1.76,0,3.36-.23,4.81-.7.82,1.57,2.02,2.68,3.61,3.34,1.58.67,3.55,1,5.9,1,.04,0,.08,0,.12,0h0s4.69,0,4.69,0h9.39s0,0,0,0h0s4.69,0,4.69,0h23.47s0,0,0,0h0s4.69,0,4.69,0h4.69c2.97,0,5.36-.59,7.16-1.76,1.76.7,3.57,1.17,5.43,1.41,1.86.24,4.41.35,7.66.35h6.51c2.82,0,5.11-.06,6.89-.18s3.33-.35,4.64-.7c1.31-.35,2.46-.88,3.43-1.58,1.13.82,2.45,1.44,3.96,1.85,1.5.41,2.94.62,4.31.62h1.17c2.03,0,3.79-.23,5.28-.7,1.49-.47,2.76-1.17,3.81-2.11,1.13.94,2.5,1.64,4.11,2.11,1.6.47,3.15.7,4.64.7,2.11,0,3.88-.25,5.31-.76,1.43-.51,2.67-1.43,3.73-2.76,2.03,1.41,4.08,2.46,6.13,3.17,2.05.71,3.9,1.06,5.55,1.06,2.07,0,3.65-.66,4.72-1.97,1.08-1.31,1.61-3.06,1.61-5.25s-.47-4.36-1.41-6.4c-.94-2.03-2.19-3.68-3.76-4.93ZM545.88,182.04v.82c-1.13.2-2.2.29-3.21.29-1.33,0-2.6-.24-3.79-.73-1.19-.49-1.95-1.16-2.27-2.02.36-1.09,1.38-2.16,3.06-3.2,1.68-1.04,3.75-1.89,6.21-2.55v7.39ZM648.92,184.21c-.16.55-.35,1-.58,1.35-.89.43-2.17.71-3.84.85-1.67.14-4.48.21-8.43.21h-5.29c3.14-2.97,5.86-5.26,8.17-6.87,2.3-1.6,4.21-2.41,5.73-2.41.81,0,1.57.26,2.27.79s1.24,1.2,1.63,2.02c.39.82.58,1.6.58,2.35,0,.59-.08,1.15-.23,1.7ZM699.21,186.74c-.59.43-1.41.65-2.43.65-.95,0-2.11-.26-3.47-.79-1.37-.53-2.8-1.26-4.3-2.2.83-1.56,1.48-2.73,1.96-3.49.48-.76.98-1.39,1.51-1.88.54-.49,1.1-.73,1.69-.73.83,0,1.65.51,2.46,1.53.81,1.02,1.46,2.2,1.96,3.55s.7,2.47.62,3.37Z"/>
      </g>
    </g>
  </g>
</svg>