<?xml version="1.0" encoding="UTF-8"?>
<svg id="Layer_2" data-name="Layer 2" xmlns="http://www.w3.org/2000/svg" viewBox="0 0 713.41 253.99">
  <defs>
    <style>
      .cls-1 {
        font-family: TheYearofHandicrafts-Regular, 'The Year of Handicrafts';
        font-size: 97.69px;
      }

      .cls-2 {
        font-family: Dubai-Medium, Dubai;
        font-size: 58.68px;
        font-weight: 500;
      }

      .cls-3 {
        fill: #02f180;
      }
    </style>
  </defs>
  <g id="Layer_1-2" data-name="Layer 1">
    <g>
      <g>
        <path class="cls-3" d="M244.26,13.78c-19.81,12.65-37.61,25.2-58.01,35.95-44.68,23.55-90.95,43.12-139.47,56.84-8.8,2.49-18.23,1.69-25.92-1.19C7.3,100.32.19,88.24.14,74.16L0,41.1c-.03-7.12,5.84-12.03,12.89-12.13l16.27-.22c43.79-.59,86.75-2.43,130.39-6.84,24.38-2.47,47.54-5.8,71.09-11.73,9.96-2.51,18.74-5.64,28.13-10.19-5,9.13-7.89,17.99-10.43,27.83-5.86,22.7-8.81,45.03-11.35,68.57-4.65,48.3-6.02,95.94-6.04,144.48,0,6.63-4.61,12.12-11.17,12.15l-36.06.16c-16.36.07-32.05-11.15-35.6-27.33-2.91-13.26-1.03-26.5,3.41-39.26,12.68-36.44,28.17-70.98,47.15-104.54,13.07-24.11,28.35-44.66,45.59-68.26Z"/>
        <path class="cls-3" d="M11.44,253.78c-6.55-.02-10.61-6.16-10.65-11.76l-.37-49.39c-.15-20.34,9.11-38.29,28.38-45.87,40.98-16.13,80.04-35.24,118.15-57.41,23.33-13.57,43.65-28.72,66.66-45.01-16.15,22.34-31.34,42.05-44.95,64.7-22.79,37.95-42.11,76.85-58.8,117.89-6.91,16.99-23.8,27.13-41.93,27.06l-56.49-.21Z"/>
      </g>
      <g>
        <text class="cls-1" transform="translate(309.77 122.94)"><tspan x="0" y="0">مســــــــــارك</tspan></text>
        <text class="cls-2" transform="translate(308.28 192.43)"><tspan x="0" y="0">منصـــــــــــة تعليميـــــــــة</tspan></text>
      </g>
    </g>
  </g>
</svg>